<svg xmlns="http://www.w3.org/2000/svg" width="400" height="346.414" viewBox="0 0 400 346.414">
  <g id="Grupo_1070770" data-name="Grupo 1070770" transform="translate(-161 -1668)">
    <g id="Grupo_1070769" data-name="Grupo 1070769" transform="translate(-19)">
      <path id="Trazado_817536" data-name="Trazado 817536" d="M17,0H383a17,17,0,0,1,17,17V329.414a17,17,0,0,1-17,17H17a17,17,0,0,1-17-17V17A17,17,0,0,1,17,0Z" transform="translate(180 1668)" fill="#ffb476"/>
      <path id="Trazado_817537" data-name="Trazado 817537" d="M47.66,2.051q-42,0-42-58.98,0-30.6,11.361-46.635T49.957-119.6q41.016,0,41.016,59.965,0,29.859-11.2,45.773T47.66,2.051ZM48.809-99.832q-16.816,0-16.816,42.246Q31.992-17.8,48.48-17.8q16.078,0,16.078-41.016T48.809-99.832Zm116.074-20.426V0h-25.84V-91.055A30.944,30.944,0,0,1,134-87.486a52.081,52.081,0,0,1-6.193,3.035,55.3,55.3,0,0,1-6.809,2.3,49.728,49.728,0,0,1-6.973,1.354v-21.82a107.789,107.789,0,0,0,19.031-7.547,108.3,108.3,0,0,0,16.16-10.09Z" transform="translate(386.666 1844)" fill="#f7a969"/>
    </g>
  </g>
</svg>
