<svg id="Grupo_1070640" data-name="Grupo 1070640" xmlns="http://www.w3.org/2000/svg" xmlns:xlink="http://www.w3.org/1999/xlink" width="54.832" height="55" viewBox="0 0 54.832 55">
  <defs>
    <clipPath id="clip-path">
      <rect id="Rectángulo_374617" data-name="Rectángulo 374617" width="54.832" height="55" fill="#ff6148"/>
    </clipPath>
  </defs>
  <g id="Grupo_1070639" data-name="Grupo 1070639" clip-path="url(#clip-path)">
    <path id="Trazado_817495" data-name="Trazado 817495" d="M20.435,1.3a.9.9,0,1,1-.91.9.9.9,0,0,1,.91-.9" fill="#ff6148"/>
    <path id="Trazado_817496" data-name="Trazado 817496" d="M52.7,0a.9.9,0,0,1,.91.9.91.91,0,0,1-1.82,0A.9.9,0,0,1,52.7,0" fill="#ff6148"/>
    <path id="Trazado_817497" data-name="Trazado 817497" d="M52.1,25.7a.9.9,0,1,1-.911.9.9.9,0,0,1,.911-.9" fill="#ff6148"/>
    <path id="Trazado_817498" data-name="Trazado 817498" d="M46.433,51.9a.9.9,0,1,1-.911.9.9.9,0,0,1,.911-.9" fill="#ff6148"/>
    <path id="Trazado_817499" data-name="Trazado 817499" d="M22.964,49.4a.9.9,0,1,1-.911.9.9.9,0,0,1,.911-.9" fill="#ff6148"/>
    <path id="Trazado_817500" data-name="Trazado 817500" d="M.911,26.9a.9.9,0,1,1,0,1.8.9.9,0,1,1,0-1.8" fill="#ff6148"/>
    <path id="Trazado_817501" data-name="Trazado 817501" d="M52,40a8.9,8.9,0,0,0-16.186-5,8.914,8.914,0,0,0-17.6,0A8.895,8.895,0,0,0,2.024,40a8.457,8.457,0,0,0,1.618,5,.1.1,0,0,0,.1.1,8.878,8.878,0,0,0,15.983-3.8,8.881,8.881,0,0,0,14.566,0,8.812,8.812,0,0,0,8.8,7.5,8.982,8.982,0,0,0,7.183-3.7l.1-.1A8.458,8.458,0,0,0,52,40M27.112,28.8A7.6,7.6,0,0,1,34.7,36.3a7.332,7.332,0,0,1-.911,3.6,7.933,7.933,0,0,0-4.148-2.6,3.7,3.7,0,0,0,1.316-2.8,3.845,3.845,0,0,0-7.689,0,3.553,3.553,0,0,0,1.315,2.8,9.427,9.427,0,0,0-4.147,2.6,7.331,7.331,0,0,1-.91-3.6,7.533,7.533,0,0,1,7.587-7.5m-2.53,5.6a2.529,2.529,0,1,1,2.53,2.5,2.491,2.491,0,0,1-2.53-2.5M5.16,44.7a7.561,7.561,0,0,1,5.968-2.8A7.715,7.715,0,0,1,17.1,44.7a7.805,7.805,0,0,1-11.937,0M8.5,38.1a2.529,2.529,0,1,1,2.529,2.5A2.491,2.491,0,0,1,8.5,38.1M17.7,43.6A7.947,7.947,0,0,0,13.556,41a3.7,3.7,0,0,0,1.316-2.8,3.82,3.82,0,0,0-3.845-3.8,3.734,3.734,0,0,0-3.742,3.8A3.55,3.55,0,0,0,8.6,41a9.439,9.439,0,0,0-4.147,2.6A7.323,7.323,0,0,1,3.541,40a7.588,7.588,0,0,1,15.174,0A8.7,8.7,0,0,1,17.7,43.6m3.439-2.7a7.561,7.561,0,0,1,5.969-2.8,7.707,7.707,0,0,1,5.967,2.8,7.673,7.673,0,0,1-11.936,0M43.2,32.5A7.6,7.6,0,0,1,50.783,40a7.323,7.323,0,0,1-.911,3.6A7.945,7.945,0,0,0,45.725,41a3.7,3.7,0,0,0,1.315-2.8,3.844,3.844,0,0,0-7.688,0A3.55,3.55,0,0,0,40.666,41a9.439,9.439,0,0,0-4.147,2.6,7.333,7.333,0,0,1-.91-3.6A7.533,7.533,0,0,1,43.2,32.5m-2.53,5.6a2.53,2.53,0,1,1,2.53,2.5,2.492,2.492,0,0,1-2.53-2.5m-3.439,6.6A7.563,7.563,0,0,1,43.2,41.9a7.708,7.708,0,0,1,5.967,2.8,7.8,7.8,0,0,1-11.936,0" fill="#ff6148"/>
    <path id="Trazado_817502" data-name="Trazado 817502" d="M50.175,5.6H26.807a4.722,4.722,0,0,0-4.754,4.7,4.491,4.491,0,0,0,1.517,3.4H10.318A5.366,5.366,0,0,0,4.957,19v9.1a.641.641,0,0,0,1.012.5l6.473-4.3H45.724A5.366,5.366,0,0,0,51.086,19a5.3,5.3,0,0,0-1.922-4.1h5.057a.65.65,0,0,0,.607-.6V10.2a4.551,4.551,0,0,0-4.653-4.6m-.3,13.5a4.142,4.142,0,0,1-4.148,4.1H12.24a.373.373,0,0,0-.3.1L6.272,27V19.1A4.143,4.143,0,0,1,10.42,15H45.825a4.057,4.057,0,0,1,4.047,4.1m3.742-5.3H26.706a3.4,3.4,0,1,1,0-6.8H50.175a3.392,3.392,0,0,1,3.439,3.4Z" fill="#ff6148"/>
    <path id="Trazado_817503" data-name="Trazado 817503" d="M8.093,10a4.465,4.465,0,0,0,4.451-4.4,4.451,4.451,0,0,0-8.9,0A4.465,4.465,0,0,0,8.093,10m0-7.5a3.134,3.134,0,0,1,3.136,3.1,3.136,3.136,0,0,1-6.272,0A3.134,3.134,0,0,1,8.093,2.5" fill="#ff6148"/>
    <path id="Trazado_817504" data-name="Trazado 817504" d="M32.169,48.8a3.1,3.1,0,1,0,3.136,3.1,3.134,3.134,0,0,0-3.136-3.1m0,5a1.91,1.91,0,0,1-1.922-1.9,1.922,1.922,0,0,1,3.844,0,1.91,1.91,0,0,1-1.922,1.9" fill="#ff6148"/>
  </g>
</svg>
