<svg xmlns="http://www.w3.org/2000/svg" width="715" height="434" viewBox="0 0 715 434">
  <g id="Grupo_1070770" data-name="Grupo 1070770" transform="translate(-390 -5675)">
    <g id="Grupo_1070658" data-name="Grupo 1070658" transform="translate(0 676)">
      <g id="Grupo_1070769" data-name="Grupo 1070769">
        <path id="Trazado_817540" data-name="Trazado 817540" d="M0,0H715V434H0Z" transform="translate(390 4999)" fill="#f3f9ff"/>
      </g>
      <g id="Grupo_1070655" data-name="Grupo 1070655" transform="translate(17 -25)">
        <path id="Trazado_817505" data-name="Trazado 817505" d="M-4207-6649.166v320.172h505" transform="translate(4702 11730.666)" fill="none" stroke="#000" stroke-width="2"/>
        <text id="Precio" transform="translate(430 5116)" fill="#12263f" font-size="16" font-family="SegoeUI, Segoe UI"><tspan x="0" y="0">Precio</tspan></text>
        <text id="M2" transform="translate(967 5419)" fill="#12263f" font-size="16" font-family="SegoeUI, Segoe UI"><tspan x="0" y="17">M</tspan><tspan y="17" font-size="9.333" baseline-shift="5.33279994943018">2</tspan></text>
        <g id="Grupo_1070645" data-name="Grupo 1070645">
          <path id="Trazado_817506" data-name="Trazado 817506" d="M-4143.266-6419.7l9.713,9.713" transform="translate(4710 11737.553)" fill="none" stroke="#2977d8" stroke-linecap="round" stroke-width="3"/>
          <path id="Trazado_817507" data-name="Trazado 817507" d="M0,0,9.713,9.713" transform="translate(576.448 5317.849) rotate(90)" fill="none" stroke="#2977d8" stroke-linecap="round" stroke-width="3"/>
        </g>
        <g id="Grupo_1070646" data-name="Grupo 1070646" transform="translate(23.552 -90)">
          <path id="Trazado_817506-2" data-name="Trazado 817506" d="M-4143.266-6419.7l9.713,9.713" transform="translate(4710 11737.553)" fill="none" stroke="#2977d8" stroke-linecap="round" stroke-width="3"/>
          <path id="Trazado_817507-2" data-name="Trazado 817507" d="M0,0,9.713,9.713" transform="translate(576.448 5317.849) rotate(90)" fill="none" stroke="#2977d8" stroke-linecap="round" stroke-width="3"/>
        </g>
        <g id="Grupo_1070647" data-name="Grupo 1070647" transform="translate(61.552 23)">
          <path id="Trazado_817506-3" data-name="Trazado 817506" d="M-4143.266-6419.7l9.713,9.713" transform="translate(4710 11737.553)" fill="none" stroke="#2977d8" stroke-linecap="round" stroke-width="3"/>
          <path id="Trazado_817507-3" data-name="Trazado 817507" d="M0,0,9.713,9.713" transform="translate(576.448 5317.849) rotate(90)" fill="none" stroke="#2977d8" stroke-linecap="round" stroke-width="3"/>
        </g>
        <g id="Grupo_1070648" data-name="Grupo 1070648" transform="translate(85.552 -78)">
          <path id="Trazado_817506-4" data-name="Trazado 817506" d="M-4143.266-6419.7l9.713,9.713" transform="translate(4710 11737.553)" fill="none" stroke="#2977d8" stroke-linecap="round" stroke-width="3"/>
          <path id="Trazado_817507-4" data-name="Trazado 817507" d="M0,0,9.713,9.713" transform="translate(576.448 5317.849) rotate(90)" fill="none" stroke="#2977d8" stroke-linecap="round" stroke-width="3"/>
        </g>
        <g id="Grupo_1070649" data-name="Grupo 1070649" transform="translate(124.552 -51)">
          <path id="Trazado_817506-5" data-name="Trazado 817506" d="M-4143.266-6419.7l9.713,9.713" transform="translate(4710 11737.553)" fill="none" stroke="#2977d8" stroke-linecap="round" stroke-width="3"/>
          <path id="Trazado_817507-5" data-name="Trazado 817507" d="M0,0,9.713,9.713" transform="translate(576.448 5317.849) rotate(90)" fill="none" stroke="#2977d8" stroke-linecap="round" stroke-width="3"/>
        </g>
        <g id="Grupo_1070650" data-name="Grupo 1070650" transform="translate(151.552 -91.097)">
          <path id="Trazado_817506-6" data-name="Trazado 817506" d="M-4143.266-6419.7l9.713,9.713" transform="translate(4710 11737.553)" fill="none" stroke="#2977d8" stroke-linecap="round" stroke-width="3"/>
          <path id="Trazado_817507-6" data-name="Trazado 817507" d="M0,0,9.713,9.713" transform="translate(576.448 5317.849) rotate(90)" fill="none" stroke="#2977d8" stroke-linecap="round" stroke-width="3"/>
        </g>
        <g id="Grupo_1070651" data-name="Grupo 1070651" transform="translate(207.552 -175.097)">
          <path id="Trazado_817506-7" data-name="Trazado 817506" d="M-4143.266-6419.7l9.713,9.713" transform="translate(4710 11737.553)" fill="none" stroke="#2977d8" stroke-linecap="round" stroke-width="3"/>
          <path id="Trazado_817507-7" data-name="Trazado 817507" d="M0,0,9.713,9.713" transform="translate(576.448 5317.849) rotate(90)" fill="none" stroke="#2977d8" stroke-linecap="round" stroke-width="3"/>
        </g>
        <g id="Grupo_1070652" data-name="Grupo 1070652" transform="translate(243.266 -139.097)">
          <path id="Trazado_817506-8" data-name="Trazado 817506" d="M-4143.266-6419.7l9.713,9.713" transform="translate(4710 11737.553)" fill="none" stroke="#2977d8" stroke-linecap="round" stroke-width="3"/>
          <path id="Trazado_817507-8" data-name="Trazado 817507" d="M0,0,9.713,9.713" transform="translate(576.448 5317.849) rotate(90)" fill="none" stroke="#2977d8" stroke-linecap="round" stroke-width="3"/>
        </g>
        <g id="Grupo_1070653" data-name="Grupo 1070653" transform="translate(250.839 -192.954)">
          <path id="Trazado_817506-9" data-name="Trazado 817506" d="M-4143.266-6419.7l9.713,9.713" transform="translate(4710 11737.553)" fill="none" stroke="#2977d8" stroke-linecap="round" stroke-width="3"/>
          <path id="Trazado_817507-9" data-name="Trazado 817507" d="M0,0,9.713,9.713" transform="translate(576.448 5317.849) rotate(90)" fill="none" stroke="#2977d8" stroke-linecap="round" stroke-width="3"/>
        </g>
        <g id="Grupo_1070654" data-name="Grupo 1070654" transform="translate(279.552 -183.239)">
          <path id="Trazado_817506-10" data-name="Trazado 817506" d="M-4143.266-6419.7l9.713,9.713" transform="translate(4710 11737.553)" fill="none" stroke="#2977d8" stroke-linecap="round" stroke-width="3"/>
          <path id="Trazado_817507-10" data-name="Trazado 817507" d="M0,0,9.713,9.713" transform="translate(576.448 5317.849) rotate(90)" fill="none" stroke="#2977d8" stroke-linecap="round" stroke-width="3"/>
        </g>
        <path id="Polígono_60" data-name="Polígono 60" d="M7.5,0,15,13H0Z" transform="translate(488 5082)"/>
        <path id="Polígono_61" data-name="Polígono 61" d="M7.5,0,15,13H0Z" transform="translate(1003 5394) rotate(90)"/>
      </g>
    </g>
    <path id="Trazado_817508" data-name="Trazado 817508" d="M-4187.927-5830.844H-3912v216.521" transform="translate(4702 11665)" fill="none" stroke="#2977d8" stroke-width="1" stroke-dasharray="6"/>
    <path id="Trazado_817509" data-name="Trazado 817509" d="M-4168-5661.2l298.993-239.313,54.551-43.663" transform="translate(4702 11700.982)" fill="none" stroke="#ff6148" stroke-width="2"/>
  </g>
</svg>
