<svg xmlns="http://www.w3.org/2000/svg" width="610" height="369" viewBox="0 0 610 369">
  <g id="Grupo_1070774" data-name="Grupo 1070774" transform="translate(-495 -7819)">
    <path id="Trazado_817602" data-name="Trazado 817602" d="M0,0H610V369H0Z" transform="translate(495 7819)" fill="#f3f9ff"/>
    <path id="Trazado_817515" data-name="Trazado 817515" d="M-4102-3521l315-240.754V-3521Z" transform="translate(4775 11645.316)" fill="none" stroke="#2977d8" stroke-width="2"/>
    <path id="Trazado_817609" data-name="Trazado 817609" d="M5.5,0A5.5,5.5,0,1,1,0,5.5,5.5,5.5,0,0,1,5.5,0Z" transform="translate(666 8120)" fill="#2977d8"/>
    <path id="Trazado_817604" data-name="Trazado 817604" d="M5.5,0A5.5,5.5,0,1,1,0,5.5,5.5,5.5,0,0,1,5.5,0Z" transform="translate(982 7878)" fill="#2977d8"/>
    <path id="Trazado_817608" data-name="Trazado 817608" d="M5.5,0A5.5,5.5,0,1,1,0,5.5,5.5,5.5,0,0,1,5.5,0Z" transform="translate(982 8119)" fill="#2977d8"/>
    <path id="Trazado_817605" data-name="Trazado 817605" d="M8.125,0H6.844V-1.359H6.813A2.958,2.958,0,0,1,4.063.188,2.988,2.988,0,0,1,1.652-.887a4.407,4.407,0,0,1-.9-2.926,4.794,4.794,0,0,1,1-3.18,3.3,3.3,0,0,1,2.664-1.2,2.564,2.564,0,0,1,2.4,1.3h.031v-4.953H8.125ZM6.844-3.617V-4.8A2.289,2.289,0,0,0,6.2-6.437a2.149,2.149,0,0,0-1.625-.672,2.212,2.212,0,0,0-1.844.859,3.766,3.766,0,0,0-.672,2.375,3.387,3.387,0,0,0,.645,2.184,2.107,2.107,0,0,0,1.73.8,2.188,2.188,0,0,0,1.738-.773A2.882,2.882,0,0,0,6.844-3.617Zm4.531-6.414a.812.812,0,0,1-.586-.234.791.791,0,0,1-.242-.594.8.8,0,0,1,.242-.6.8.8,0,0,1,.586-.238.827.827,0,0,1,.6.238.8.8,0,0,1,.246.6.792.792,0,0,1-.246.586A.82.82,0,0,1,11.375-10.031ZM12,0H10.719V-8H12Zm2.109-.289V-1.664a3.792,3.792,0,0,0,2.3.773q1.688,0,1.688-1.125a.976.976,0,0,0-.145-.543,1.44,1.44,0,0,0-.391-.395,3.007,3.007,0,0,0-.578-.309q-.332-.137-.715-.285a9.207,9.207,0,0,1-.934-.426,2.82,2.82,0,0,1-.672-.484,1.8,1.8,0,0,1-.406-.613,2.17,2.17,0,0,1-.137-.8,1.912,1.912,0,0,1,.258-1A2.286,2.286,0,0,1,15.07-7.6a3.206,3.206,0,0,1,.98-.441,4.349,4.349,0,0,1,1.137-.148,4.59,4.59,0,0,1,1.859.359v1.3a3.624,3.624,0,0,0-2.031-.578,2.374,2.374,0,0,0-.648.082,1.587,1.587,0,0,0-.5.23,1.065,1.065,0,0,0-.32.355.936.936,0,0,0-.113.457,1.1,1.1,0,0,0,.113.523,1.152,1.152,0,0,0,.332.375,2.538,2.538,0,0,0,.531.3q.313.133.711.289a9.9,9.9,0,0,1,.953.418A3.269,3.269,0,0,1,18.8-3.6a1.893,1.893,0,0,1,.457.621,2,2,0,0,1,.16.836,1.971,1.971,0,0,1-.262,1.031,2.243,2.243,0,0,1-.7.727,3.2,3.2,0,0,1-1.008.43,4.976,4.976,0,0,1-1.2.141A4.539,4.539,0,0,1,14.109-.289Zm10.984.211a2.47,2.47,0,0,1-1.2.25q-2.1,0-2.1-2.344V-6.906H20.422V-8H21.8V-9.953l1.281-.414V-8h2.016v1.094H23.078V-2.4a1.869,1.869,0,0,0,.273,1.148,1.091,1.091,0,0,0,.906.344,1.347,1.347,0,0,0,.836-.266ZM32.531,0H31.25V-1.25h-.031A2.682,2.682,0,0,1,28.758.188a2.63,2.63,0,0,1-1.871-.633,2.192,2.192,0,0,1-.676-1.68q0-2.242,2.641-2.609l2.4-.336q0-2.039-1.648-2.039a3.938,3.938,0,0,0-2.609.984V-7.437a4.958,4.958,0,0,1,2.719-.75q2.82,0,2.82,2.984ZM31.25-4.047l-1.93.266a3.133,3.133,0,0,0-1.344.441,1.273,1.273,0,0,0-.453,1.121,1.221,1.221,0,0,0,.418.957,1.615,1.615,0,0,0,1.113.371,2.056,2.056,0,0,0,1.574-.668A2.387,2.387,0,0,0,31.25-3.25ZM41.586,0H40.3V-4.562q0-2.547-1.859-2.547a2.017,2.017,0,0,0-1.59.723,2.679,2.679,0,0,0-.629,1.824V0H34.945V-8h1.281v1.328h.031a2.887,2.887,0,0,1,2.625-1.516,2.448,2.448,0,0,1,2.008.848,3.776,3.776,0,0,1,.7,2.449Zm7.867-.367a4.163,4.163,0,0,1-2.187.555A3.622,3.622,0,0,1,44.5-.926a4.035,4.035,0,0,1-1.051-2.887,4.435,4.435,0,0,1,1.133-3.176,3.963,3.963,0,0,1,3.023-1.2,4.209,4.209,0,0,1,1.859.391v1.313a3.258,3.258,0,0,0-1.906-.625,2.576,2.576,0,0,0-2.012.879,3.335,3.335,0,0,0-.785,2.309A3.176,3.176,0,0,0,45.5-1.7a2.545,2.545,0,0,0,1.98.813,3.211,3.211,0,0,0,1.969-.7Zm2.594-9.664a.812.812,0,0,1-.586-.234.791.791,0,0,1-.242-.594.8.8,0,0,1,.242-.6.8.8,0,0,1,.586-.238.827.827,0,0,1,.6.238.8.8,0,0,1,.246.6.792.792,0,0,1-.246.586A.82.82,0,0,1,52.047-10.031ZM52.672,0H51.391V-8h1.281Zm8.32,0H59.711V-1.25H59.68A2.682,2.682,0,0,1,57.219.188a2.63,2.63,0,0,1-1.871-.633,2.192,2.192,0,0,1-.676-1.68q0-2.242,2.641-2.609l2.4-.336q0-2.039-1.648-2.039a3.938,3.938,0,0,0-2.609.984V-7.437a4.958,4.958,0,0,1,2.719-.75q2.82,0,2.82,2.984ZM59.711-4.047l-1.93.266a3.133,3.133,0,0,0-1.344.441,1.273,1.273,0,0,0-.453,1.121,1.221,1.221,0,0,0,.418.957,1.615,1.615,0,0,0,1.113.371,2.056,2.056,0,0,0,1.574-.668,2.387,2.387,0,0,0,.621-1.691Z" transform="translate(787.44 8022.542) rotate(-39)" fill="#12263f"/>
    <path id="Trazado_817610" data-name="Trazado 817610" d="M7.141,9,4.453,13.047,7.094,17H5.6l-1.57-2.594q-.148-.242-.352-.609H3.648q-.039.07-.367.609L1.68,17H.2L2.93,13.078.32,9H1.813l1.547,2.734q.172.3.336.625h.031L5.727,9Zm3.721,8.179a1.351,1.351,0,0,0-.093-.524,1.015,1.015,0,0,0-.636-.592,1.49,1.49,0,0,0-.474-.073,1.568,1.568,0,0,0-.428.059,2.083,2.083,0,0,0-.408.164,2.509,2.509,0,0,0-.383.251,2.765,2.765,0,0,0-.344.324v-.8a2.234,2.234,0,0,1,.7-.467,2.479,2.479,0,0,1,.95-.162,2.294,2.294,0,0,1,.743.116,1.7,1.7,0,0,1,.592.339,1.569,1.569,0,0,1,.394.551,1.86,1.86,0,0,1,.144.752,2.578,2.578,0,0,1-.089.7,2.17,2.17,0,0,1-.269.592,2.859,2.859,0,0,1-.453.533,6.423,6.423,0,0,1-.643.52q-.46.328-.759.561a3.354,3.354,0,0,0-.474.435,1.263,1.263,0,0,0-.246.406,1.418,1.418,0,0,0-.071.467h3.254V22H7.84v-.324a2.7,2.7,0,0,1,.091-.738,1.917,1.917,0,0,1,.3-.606,3.364,3.364,0,0,1,.549-.574q.339-.287.832-.647a5.258,5.258,0,0,0,.595-.488,2.535,2.535,0,0,0,.385-.465,1.669,1.669,0,0,0,.207-.472A2.034,2.034,0,0,0,10.862,17.179Zm11.286-4.132H17.883V12.039h4.266ZM34.679,9l-2.687,4.047L34.633,17H33.14l-1.57-2.594q-.148-.242-.352-.609h-.031q-.039.07-.367.609L29.218,17H27.742l2.727-3.922L27.859,9h1.492L30.9,11.734q.172.3.336.625h.031l2-3.359Zm3.5,13h-.747V16.354a1.73,1.73,0,0,1-.253.2,4.123,4.123,0,0,1-.374.221q-.207.109-.437.205a3.179,3.179,0,0,1-.449.15v-.756a4.345,4.345,0,0,0,.522-.185q.276-.116.542-.26t.5-.3a4,4,0,0,0,.41-.308h.283Z" transform="translate(812 8134)" fill="#12263f"/>
    <path id="Trazado_817607" data-name="Trazado 817607" d="M4.656,2.547H3.516a9.984,9.984,0,0,1-2.422-6.82A10.362,10.362,0,0,1,3.516-11.2H4.672A10.529,10.529,0,0,0,2.219-4.289,10.345,10.345,0,0,0,4.656,2.547ZM16.352-8,13.664-3.953,16.3,0H14.813l-1.57-2.594q-.148-.242-.352-.609h-.031q-.039.07-.367.609L10.891,0H9.414l2.727-3.922L9.531-8h1.492L12.57-5.266q.172.3.336.625h.031l2-3.359ZM20.073.179a1.351,1.351,0,0,0-.093-.524,1.038,1.038,0,0,0-.255-.371,1.046,1.046,0,0,0-.381-.221,1.49,1.49,0,0,0-.474-.073,1.568,1.568,0,0,0-.428.059,2.082,2.082,0,0,0-.408.164,2.509,2.509,0,0,0-.383.251,2.765,2.765,0,0,0-.344.324v-.8a2.234,2.234,0,0,1,.7-.467,2.479,2.479,0,0,1,.95-.162,2.294,2.294,0,0,1,.743.116,1.7,1.7,0,0,1,.592.339,1.569,1.569,0,0,1,.394.551,1.86,1.86,0,0,1,.144.752,2.578,2.578,0,0,1-.089.7,2.17,2.17,0,0,1-.269.592,2.859,2.859,0,0,1-.453.533,6.423,6.423,0,0,1-.643.52q-.46.328-.759.561a3.354,3.354,0,0,0-.474.435,1.263,1.263,0,0,0-.246.406,1.418,1.418,0,0,0-.071.467h3.254V5H17.051V4.676a2.7,2.7,0,0,1,.091-.738,1.917,1.917,0,0,1,.3-.606,3.364,3.364,0,0,1,.549-.574q.339-.287.832-.647a5.258,5.258,0,0,0,.595-.488,2.535,2.535,0,0,0,.385-.465,1.669,1.669,0,0,0,.207-.472A2.034,2.034,0,0,0,20.073.179ZM31.359-3.953H27.093V-4.961h4.266ZM43.89-8,41.2-3.953,43.843,0H42.351l-1.57-2.594q-.148-.242-.352-.609H40.4q-.039.07-.367.609L38.429,0H36.953l2.727-3.922L37.07-8h1.492l1.547,2.734q.172.3.336.625h.031l2-3.359Zm3.5,13h-.747V-.646a1.73,1.73,0,0,1-.253.2,4.123,4.123,0,0,1-.374.221q-.207.109-.437.205a3.179,3.179,0,0,1-.449.15V-.628a4.345,4.345,0,0,0,.522-.185q.276-.116.542-.26t.5-.3a4,4,0,0,0,.41-.308h.283Zm5.616-2.453H51.868a10.345,10.345,0,0,0,2.438-6.836A10.529,10.529,0,0,0,51.853-11.2h1.156a10.321,10.321,0,0,1,2.438,6.93A9.945,9.945,0,0,1,53.009,2.547Z" transform="translate(600 8128)" fill="#12263f"/>
    <path id="Trazado_817603" data-name="Trazado 817603" d="M4.656,2.547H3.516a9.984,9.984,0,0,1-2.422-6.82A10.362,10.362,0,0,1,3.516-11.2H4.672A10.529,10.529,0,0,0,2.219-4.289,10.345,10.345,0,0,0,4.656,2.547ZM16.352-8,13.664-3.953,16.3,0H14.813l-1.57-2.594q-.148-.242-.352-.609h-.031q-.039.07-.367.609L10.891,0H9.414l2.727-3.922L9.531-8h1.492L12.57-5.266q.172.3.336.625h.031l2-3.359ZM20.073.179a1.351,1.351,0,0,0-.093-.524,1.038,1.038,0,0,0-.255-.371,1.046,1.046,0,0,0-.381-.221,1.49,1.49,0,0,0-.474-.073,1.568,1.568,0,0,0-.428.059,2.082,2.082,0,0,0-.408.164,2.509,2.509,0,0,0-.383.251,2.765,2.765,0,0,0-.344.324v-.8a2.234,2.234,0,0,1,.7-.467,2.479,2.479,0,0,1,.95-.162,2.294,2.294,0,0,1,.743.116,1.7,1.7,0,0,1,.592.339,1.569,1.569,0,0,1,.394.551,1.86,1.86,0,0,1,.144.752,2.578,2.578,0,0,1-.089.7,2.17,2.17,0,0,1-.269.592,2.859,2.859,0,0,1-.453.533,6.423,6.423,0,0,1-.643.52q-.46.328-.759.561a3.354,3.354,0,0,0-.474.435,1.263,1.263,0,0,0-.246.406,1.418,1.418,0,0,0-.071.467h3.254V5H17.051V4.676a2.7,2.7,0,0,1,.091-.738,1.917,1.917,0,0,1,.3-.606,3.364,3.364,0,0,1,.549-.574q.339-.287.832-.647a5.258,5.258,0,0,0,.595-.488,2.535,2.535,0,0,0,.385-.465,1.669,1.669,0,0,0,.207-.472A2.034,2.034,0,0,0,20.073.179Zm8.364-1.96-1.25,3.844h-.914l.914-3.844ZM41.484-8,37.8,1.281q-.984,2.484-2.766,2.484a2.932,2.932,0,0,1-.836-.1V2.516a2.375,2.375,0,0,0,.758.141A1.57,1.57,0,0,0,36.414,1.5l.641-1.516L33.929-8h1.422l2.164,6.156q.039.117.164.609h.047q.039-.187.156-.594L40.156-8ZM45.08.179a1.351,1.351,0,0,0-.093-.524,1.038,1.038,0,0,0-.255-.371,1.046,1.046,0,0,0-.381-.221,1.49,1.49,0,0,0-.474-.073,1.568,1.568,0,0,0-.428.059,2.082,2.082,0,0,0-.408.164,2.509,2.509,0,0,0-.383.251,2.765,2.765,0,0,0-.344.324v-.8a2.234,2.234,0,0,1,.7-.467,2.479,2.479,0,0,1,.95-.162,2.294,2.294,0,0,1,.743.116,1.7,1.7,0,0,1,.592.339,1.569,1.569,0,0,1,.394.551,1.86,1.86,0,0,1,.144.752,2.578,2.578,0,0,1-.089.7,2.17,2.17,0,0,1-.269.592,2.859,2.859,0,0,1-.453.533,6.422,6.422,0,0,1-.643.52q-.46.328-.759.561a3.354,3.354,0,0,0-.474.435,1.263,1.263,0,0,0-.246.406,1.418,1.418,0,0,0-.071.467h3.254V5H42.059V4.676a2.7,2.7,0,0,1,.091-.738,1.917,1.917,0,0,1,.3-.606A3.364,3.364,0,0,1,43,2.758q.339-.287.832-.647a5.258,5.258,0,0,0,.595-.488,2.535,2.535,0,0,0,.385-.465,1.669,1.669,0,0,0,.207-.472A2.034,2.034,0,0,0,45.08.179Zm5.4,2.368H49.337a10.345,10.345,0,0,0,2.438-6.836A10.529,10.529,0,0,0,49.322-11.2h1.156a10.321,10.321,0,0,1,2.438,6.93A9.945,9.945,0,0,1,50.478,2.547Z" transform="translate(962 7864)" fill="#12263f"/>
    <path id="Trazado_817606" data-name="Trazado 817606" d="M8.75-11.2l-3.7,7.063V0H3.742V-4.109L.141-11.2H1.633L4.141-6.141q.047.094.273.688h.023a4.11,4.11,0,0,1,.3-.687L7.359-11.2ZM12.362.179a1.351,1.351,0,0,0-.093-.524,1.038,1.038,0,0,0-.255-.371,1.046,1.046,0,0,0-.381-.221,1.49,1.49,0,0,0-.474-.073,1.568,1.568,0,0,0-.428.059,2.082,2.082,0,0,0-.408.164,2.509,2.509,0,0,0-.383.251A2.765,2.765,0,0,0,9.6-.213v-.8a2.234,2.234,0,0,1,.7-.467,2.479,2.479,0,0,1,.95-.162,2.294,2.294,0,0,1,.743.116,1.7,1.7,0,0,1,.592.339,1.569,1.569,0,0,1,.394.551,1.86,1.86,0,0,1,.144.752,2.578,2.578,0,0,1-.089.7,2.17,2.17,0,0,1-.269.592,2.859,2.859,0,0,1-.453.533,6.423,6.423,0,0,1-.643.52q-.46.328-.759.561a3.354,3.354,0,0,0-.474.435,1.263,1.263,0,0,0-.246.406,1.418,1.418,0,0,0-.071.467h3.254V5H9.34V4.676a2.7,2.7,0,0,1,.091-.738,1.917,1.917,0,0,1,.3-.606,3.364,3.364,0,0,1,.549-.574q.339-.287.832-.647a5.258,5.258,0,0,0,.595-.488,2.535,2.535,0,0,0,.385-.465A1.669,1.669,0,0,0,12.3.687,2.034,2.034,0,0,0,12.362.179ZM28.031-3.953H23.765V-4.961h4.266ZM45.468-8l-3.68,9.281Q40.8,3.766,39.023,3.766a2.932,2.932,0,0,1-.836-.1V2.516a2.375,2.375,0,0,0,.758.141A1.57,1.57,0,0,0,40.4,1.5l.641-1.516L37.914-8h1.422L41.5-1.844q.039.117.164.609h.047q.039-.187.156-.594L44.14-8ZM48.846,5H48.1V-.646a1.73,1.73,0,0,1-.253.2,4.123,4.123,0,0,1-.374.221q-.207.109-.437.205a3.179,3.179,0,0,1-.449.15V-.628a4.345,4.345,0,0,0,.522-.185q.276-.116.542-.26t.5-.3a4,4,0,0,0,.41-.308h.283Z" transform="translate(1004 8002)" fill="#12263f"/>
  </g>
</svg>
