<svg xmlns="http://www.w3.org/2000/svg" xmlns:xlink="http://www.w3.org/1999/xlink" width="57.506" height="56.754" viewBox="0 0 57.506 56.754">
  <defs>
    <clipPath id="clip-path">
      <rect id="Rectángulo_374575" data-name="Rectángulo 374575" width="57.506" height="56.754" fill="none"/>
    </clipPath>
  </defs>
  <g id="Grupo_1070566" data-name="Grupo 1070566" transform="translate(0 0)">
    <g id="Grupo_1070565" data-name="Grupo 1070565" transform="translate(0 0)" clip-path="url(#clip-path)">
      <path id="Trazado_817411" data-name="Trazado 817411" d="M39.588,29.583h6.1A5.968,5.968,0,1,0,51.5,22.442a5.844,5.844,0,0,0-5.815,4.73h-6.1V7.141h6.1a5.976,5.976,0,0,0,11.82-1.206A6.012,6.012,0,0,0,51.5,0a5.845,5.845,0,0,0-5.815,4.73H38.369a1.235,1.235,0,0,0-1.22,1.2V27.173h-6a12.914,12.914,0,0,0-3-7.141l2.534-2.5a1.165,1.165,0,0,0,0-1.668,1.2,1.2,0,0,0-1.689,0l-2.533,2.5A13.22,13.22,0,0,0,19.231,15.4V11.777a1.22,1.22,0,0,0-2.439,0V15.4a13.217,13.217,0,0,0-7.223,2.968l-2.533-2.5a1.2,1.2,0,0,0-1.689,0,1.165,1.165,0,0,0,0,1.668l2.533,2.5a12.906,12.906,0,0,0-3,7.141H1.219a1.205,1.205,0,1,0,0,2.41H4.878a12.912,12.912,0,0,0,3,7.142l-2.533,2.5a1.166,1.166,0,0,0,0,1.669,1.2,1.2,0,0,0,1.689,0l2.533-2.5a13.225,13.225,0,0,0,7.223,2.968v3.617a1.22,1.22,0,0,0,2.439,0V41.361a13.228,13.228,0,0,0,7.224-2.968l2.533,2.5a1.2,1.2,0,0,0,1.689,0,1.166,1.166,0,0,0,0-1.669l-2.534-2.5a12.919,12.919,0,0,0,3-7.142h6V50.82a1.236,1.236,0,0,0,1.22,1.206h7.318A5.968,5.968,0,1,0,51.5,44.884a5.845,5.845,0,0,0-5.815,4.73h-6.1ZM51.5,24.854a3.524,3.524,0,1,1-3.565,3.524A3.543,3.543,0,0,1,51.5,24.854m0-22.442a3.524,3.524,0,1,1-3.565,3.523A3.543,3.543,0,0,1,51.5,2.412m-22.8,24.76H25.047a8.289,8.289,0,0,0-1.219-2.968l2.534-2.5a9.943,9.943,0,0,1,2.345,5.472m-10.7,5.934A4.729,4.729,0,1,1,22.8,28.378a4.777,4.777,0,0,1-4.784,4.729m6.755-13.075-2.534,2.5a6.6,6.6,0,0,0-3-1.206V17.713a11.765,11.765,0,0,1,5.535,2.318m-7.881-2.227v3.618a8.518,8.518,0,0,0-3,1.2l-2.533-2.5a9.62,9.62,0,0,1,5.534-2.318M9.662,21.7l2.533,2.5a6.456,6.456,0,0,0-1.219,2.968H7.317A11.512,11.512,0,0,1,9.662,21.7M7.317,29.583h3.658a8.286,8.286,0,0,0,1.219,2.968l-2.533,2.5a11.5,11.5,0,0,1-2.345-5.472m4.034,7.142,2.533-2.5a6.6,6.6,0,0,0,3,1.206v3.618a11.032,11.032,0,0,1-5.534-2.318m7.88,2.226V35.333a8.53,8.53,0,0,0,3-1.206l2.534,2.5a10.174,10.174,0,0,1-5.535,2.318m7.224-3.895-2.534-2.5a6.459,6.459,0,0,0,1.219-2.968H28.8a11.5,11.5,0,0,1-2.345,5.472M51.5,47.3a3.524,3.524,0,1,1-3.565,3.524A3.543,3.543,0,0,1,51.5,47.3" transform="translate(0 0)"/>
    </g>
  </g>
</svg>
