<svg xmlns="http://www.w3.org/2000/svg" xmlns:xlink="http://www.w3.org/1999/xlink" width="98" height="98" viewBox="0 0 98 98">
  <defs>
    <clipPath id="clip-path">
      <rect id="Rectángulo_374584" data-name="Rectángulo 374584" width="77.758" height="65.769" fill="none"/>
    </clipPath>
    <clipPath id="clip-path-2">
      <rect id="Rectángulo_374579" data-name="Rectángulo 374579" width="77.758" height="65.769" fill="#fff"/>
    </clipPath>
    <clipPath id="clip-path-3">
      <rect id="Rectángulo_374578" data-name="Rectángulo 374578" width="11.007" height="17.822" fill="#dee4f0" stroke="#dee4f0" stroke-width="1"/>
    </clipPath>
    <clipPath id="clip-path-5">
      <rect id="Rectángulo_374580" data-name="Rectángulo 374580" width="7.068" height="6.884" fill="none"/>
    </clipPath>
  </defs>
  <g id="Grupo_1070766" data-name="Grupo 1070766" transform="translate(-626 -583)">
    <g id="Grupo_1070371" data-name="Grupo 1070371">
      <path id="Trazado_817535" data-name="Trazado 817535" d="M8,0H90a8,8,0,0,1,8,8V90a8,8,0,0,1-8,8H8a8,8,0,0,1-8-8V8A8,8,0,0,1,8,0Z" transform="translate(626 583)" fill="#ff6148"/>
    </g>
    <g id="Grupo_1070586" data-name="Grupo 1070586" transform="translate(636.121 599.116)">
      <g id="Grupo_1070585" data-name="Grupo 1070585" clip-path="url(#clip-path)">
        <g id="Grupo_1070573" data-name="Grupo 1070573" transform="translate(0 0)">
          <g id="Grupo_1070572" data-name="Grupo 1070572" clip-path="url(#clip-path-2)">
            <path id="Trazado_817416" data-name="Trazado 817416" d="M57.643,2.136C33.484,6.569,41.121,30.8,43.758,35.276,49.279,44.649,51.8,45.213,51.8,56v9.274H71.381V54.641S81.612,55.675,84.7,53.212c2.139-1.708.236-6.026.236-6.026l.94-1.818-1.829-1.542,2.3-1.549L85.311,40.64,90.4,37.787,84.054,25.663S86.159-3.1,57.643,2.136" transform="translate(-13.635 -0.505)" fill="#fff"/>
            <g id="Grupo_1070571" data-name="Grupo 1070571" transform="translate(57.534 4.351)" style="mix-blend-mode: screen;isolation: isolate">
              <g id="Grupo_1070570" data-name="Grupo 1070570">
                <g id="Grupo_1070569" data-name="Grupo 1070569" clip-path="url(#clip-path-3)">
                  <path id="Trazado_817417" data-name="Trazado 817417" d="M87.727,7.559s8.806,3.182,9.68,16.5" transform="translate(-87.063 -6.895)" fill="#dee4f0" stroke="#dee4f0" stroke-linecap="round" stroke-miterlimit="10" stroke-width="2"/>
                </g>
              </g>
            </g>
            <path id="Trazado_817418" data-name="Trazado 817418" d="M57.643,2.136C33.484,6.569,41.121,30.8,43.758,35.276,49.279,44.649,51.8,45.213,51.8,56v9.274H71.381V54.641S81.612,55.675,84.7,53.212c2.139-1.708.236-6.026.236-6.026l.94-1.818-1.829-1.542,2.3-1.549L85.311,40.64,90.4,37.787,84.054,25.663S86.159-3.1,57.643,2.136Z" transform="translate(-13.635 -0.505)" fill="none" stroke="#2c2c2c" stroke-linecap="round" stroke-linejoin="round" stroke-width="2"/>
            <path id="Trazado_817419" data-name="Trazado 817419" d="M79.8,26.012A10.644,10.644,0,1,1,69.157,15.368,10.644,10.644,0,0,1,79.8,26.012" transform="translate(-19.696 -5.173)" fill="#fff"/>
            <circle id="Elipse_9255" data-name="Elipse 9255" cx="10.644" cy="10.644" r="10.644" transform="translate(38.817 10.195)" fill="none" stroke="#2c2c2c" stroke-linecap="round" stroke-linejoin="round" stroke-width="2"/>
          </g>
        </g>
        <text id="AI" transform="translate(44.008 23.232)" fill="#0097a7" font-size="11" font-family="SegoeUI, Segoe UI"><tspan x="0" y="0">AI</tspan></text>
        <g id="Grupo_1070584" data-name="Grupo 1070584" transform="translate(0 0)">
          <g id="Grupo_1070583" data-name="Grupo 1070583" clip-path="url(#clip-path)">
            <path id="Trazado_817420" data-name="Trazado 817420" d="M47.18,17.061H26.971l-3.039-3.789H13.218" transform="translate(-4.449 -4.467)" fill="none" stroke="#2c2c2c" stroke-linecap="round" stroke-linejoin="round" stroke-width="2"/>
            <path id="Trazado_817421" data-name="Trazado 817421" d="M9.63,11.479A3.534,3.534,0,1,1,6.1,7.945,3.534,3.534,0,0,1,9.63,11.479" transform="translate(-0.862 -2.674)" fill="#ffd949"/>
            <g id="Grupo_1070576" data-name="Grupo 1070576" transform="translate(1.7 5.362)" style="mix-blend-mode: multiply;isolation: isolate">
              <g id="Grupo_1070575" data-name="Grupo 1070575">
                <g id="Grupo_1070574" data-name="Grupo 1070574" clip-path="url(#clip-path-5)">
                  <path id="Trazado_817422" data-name="Trazado 817422" d="M7.443,11.451A2.562,2.562,0,0,1,4.882,8.89a2.52,2.52,0,0,1,.143-.807,3.565,3.565,0,1,0,4.447,2.354,2.549,2.549,0,0,1-2.029,1.014" transform="translate(-2.563 -8.083)" fill="#e3c142"/>
                </g>
              </g>
            </g>
            <path id="Trazado_817423" data-name="Trazado 817423" d="M9.63,11.479A3.534,3.534,0,1,1,6.1,7.945,3.534,3.534,0,0,1,9.63,11.479Z" transform="translate(-0.862 -2.674)" fill="none" stroke="#2c2c2c" stroke-linecap="round" stroke-linejoin="round" stroke-width="2"/>
            <path id="Trazado_817424" data-name="Trazado 817424" d="M8.568,51.432A3.534,3.534,0,1,1,5.035,47.9a3.534,3.534,0,0,1,3.534,3.534" transform="translate(-0.505 -16.123)" fill="#ffd949"/>
            <g id="Grupo_1070579" data-name="Grupo 1070579" transform="translate(0.995 31.867)" style="mix-blend-mode: multiply;isolation: isolate">
              <g id="Grupo_1070578" data-name="Grupo 1070578">
                <g id="Grupo_1070577" data-name="Grupo 1070577" clip-path="url(#clip-path-5)">
                  <path id="Trazado_817425" data-name="Trazado 817425" d="M6.38,51.405a2.562,2.562,0,0,1-2.561-2.561,2.52,2.52,0,0,1,.143-.807,3.565,3.565,0,1,0,4.447,2.354A2.549,2.549,0,0,1,6.38,51.405" transform="translate(-1.5 -48.036)" fill="#e3c142"/>
                </g>
              </g>
            </g>
            <path id="Trazado_817426" data-name="Trazado 817426" d="M8.568,51.432A3.534,3.534,0,1,1,5.035,47.9,3.534,3.534,0,0,1,8.568,51.432Z" transform="translate(-0.505 -16.123)" fill="none" stroke="#2c2c2c" stroke-linecap="round" stroke-linejoin="round" stroke-width="2"/>
            <path id="Trazado_817427" data-name="Trazado 817427" d="M21.956,29.62a3.534,3.534,0,1,1-3.534-3.534,3.534,3.534,0,0,1,3.534,3.534" transform="translate(-5.011 -8.781)" fill="#ffd949"/>
            <g id="Grupo_1070582" data-name="Grupo 1070582" transform="translate(9.877 17.397)" style="mix-blend-mode: multiply;isolation: isolate">
              <g id="Grupo_1070581" data-name="Grupo 1070581">
                <g id="Grupo_1070580" data-name="Grupo 1070580" clip-path="url(#clip-path-5)">
                  <path id="Trazado_817428" data-name="Trazado 817428" d="M19.769,29.593a2.562,2.562,0,0,1-2.561-2.561,2.52,2.52,0,0,1,.143-.807A3.565,3.565,0,1,0,21.8,28.579a2.549,2.549,0,0,1-2.029,1.014" transform="translate(-14.889 -26.225)" fill="#e3c142"/>
                </g>
              </g>
            </g>
            <path id="Trazado_817429" data-name="Trazado 817429" d="M21.956,29.62a3.534,3.534,0,1,1-3.534-3.534A3.534,3.534,0,0,1,21.956,29.62Z" transform="translate(-5.011 -8.781)" fill="none" stroke="#2c2c2c" stroke-linecap="round" stroke-linejoin="round" stroke-width="2"/>
            <line id="Línea_443" data-name="Línea 443" x1="21.872" transform="translate(16.945 20.839)" fill="none" stroke="#2c2c2c" stroke-linecap="round" stroke-linejoin="round" stroke-width="2"/>
            <path id="Trazado_817430" data-name="Trazado 817430" d="M47.43,44.535H29.073l-2.4,5.765H12.155" transform="translate(-4.092 -14.991)" fill="none" stroke="#2c2c2c" stroke-linecap="round" stroke-linejoin="round" stroke-width="2"/>
          </g>
        </g>
      </g>
    </g>
  </g>
</svg>
