<svg xmlns="http://www.w3.org/2000/svg" xmlns:xlink="http://www.w3.org/1999/xlink" width="56.851" height="56.199" viewBox="0 0 56.851 56.199">
  <defs>
    <clipPath id="clip-path">
      <rect id="Rectángulo_374614" data-name="Rectángulo 374614" width="56.851" height="56.199" transform="translate(0 0)" fill="none"/>
    </clipPath>
  </defs>
  <g id="Grupo_1070635" data-name="Grupo 1070635" transform="translate(0 0)">
    <g id="Grupo_1070634" data-name="Grupo 1070634" clip-path="url(#clip-path)">
      <path id="Trazado_817471" data-name="Trazado 817471" d="M49.264,35.7V7.6a.649.649,0,0,0-.607-.6H34.7a.649.649,0,0,0-.607.6V35.7A7.635,7.635,0,0,1,28.425,43a7.52,7.52,0,0,1-5.665-7.3V8.2a.649.649,0,0,0-.607-.6H8.193a.648.648,0,0,0-.606.6V35.7A18.984,18.984,0,0,0,28.425,54.4h.1a22.48,22.48,0,0,0,14.264-5,18.136,18.136,0,0,0,6.474-13.7M48.049,14.5H45.521V8.2h2.528Zm-3.843,0h-8.9V8.2h8.9ZM25.694,43.2a7.52,7.52,0,0,1-6.677-7.5v-20h2.529v20a8.329,8.329,0,0,0,4.148,7.5M21.445,14.5H18.917V8.9h2.528Zm-3.743,0H8.8V8.9h8.9ZM8.8,35.7v-20h8.9v20a8.785,8.785,0,0,0,10.824,8.5h.1A8.814,8.814,0,0,0,35.4,35.7v-20h8.9v20A17.755,17.755,0,0,1,8.8,35.7M37.024,51.3a18.864,18.864,0,0,0,8.5-15.6v-20h2.528v20c-.2,7.6-4.956,13-11.025,15.6"/>
      <path id="Trazado_817472" data-name="Trazado 817472" d="M26.1,11.2l3.743-.9-4.451,8.8a.551.551,0,0,0,.3.8c.1,0,.2.1.3.1a.725.725,0,0,0,.607-.3l5.057-10a.608.608,0,0,0-.1-.7c-.2-.2-.4-.3-.608-.2l-3.742.9L29.842,4a.628.628,0,0,0-.3-.8.639.639,0,0,0-.809.3l-3.136,6.9a.613.613,0,0,0,.1.7c-.1.1.1.2.4.1"/>
      <path id="Trazado_817473" data-name="Trazado 817473" d="M53.715,0a3.133,3.133,0,0,0-3.136,3.1,3.137,3.137,0,0,0,6.273,0A3.134,3.134,0,0,0,53.715,0m0,5a1.911,1.911,0,0,1-1.922-1.9,1.923,1.923,0,0,1,3.845,0A1.911,1.911,0,0,1,53.715,5"/>
      <path id="Trazado_817474" data-name="Trazado 817474" d="M4.451,46.9A4.4,4.4,0,1,0,8.9,51.3a4.465,4.465,0,0,0-4.45-4.4m0,7.5a3.1,3.1,0,1,1,3.136-3.1,3.2,3.2,0,0,1-3.136,3.1"/>
      <path id="Trazado_817475" data-name="Trazado 817475" d="M48.354,50a.9.9,0,1,1-.91.9.9.9,0,0,1,.91-.9"/>
      <path id="Trazado_817476" data-name="Trazado 817476" d="M52.805,21.9a.9.9,0,1,1-.91.9.9.9,0,0,1,.91-.9"/>
      <path id="Trazado_817477" data-name="Trazado 817477" d="M41.98.6a.9.9,0,1,1-.91.9.906.906,0,0,1,.91-.9"/>
      <path id="Trazado_817478" data-name="Trazado 817478" d="M15.477,0a.905.905,0,0,1,.911.9.911.911,0,0,1-1.822,0,.9.9,0,0,1,.911-.9"/>
      <path id="Trazado_817479" data-name="Trazado 817479" d="M2.226,11a.9.9,0,1,1-.911.9.9.9,0,0,1,.911-.9"/>
      <path id="Trazado_817480" data-name="Trazado 817480" d="M3.439,34.4a.9.9,0,1,1-.911.9.9.9,0,0,1,.911-.9"/>
      <path id="Trazado_817481" data-name="Trazado 817481" d="M15.477,54.4a.9.9,0,1,1-.911.9.906.906,0,0,1,.911-.9"/>
    </g>
  </g>
</svg>
