<svg id="Grupo_1070633" data-name="Grupo 1070633" xmlns="http://www.w3.org/2000/svg" xmlns:xlink="http://www.w3.org/1999/xlink" width="52.768" height="55.289" viewBox="0 0 52.768 55.289">
  <defs>
    <clipPath id="clip-path">
      <rect id="Rectángulo_374613" data-name="Rectángulo 374613" width="52.768" height="55.289" fill="none"/>
    </clipPath>
  </defs>
  <g id="Grupo_1070632" data-name="Grupo 1070632" transform="translate(0 0)" clip-path="url(#clip-path)">
    <path id="Trazado_817460" data-name="Trazado 817460" d="M12.626,5.491a18.592,18.592,0,0,0-.862,25.941,11.387,11.387,0,0,1,2.97,7.763,4.024,4.024,0,0,0,4.023,3.976h.765v1.8H18.277a.569.569,0,1,0,0,1.137h1.244v1.8H18.277a.568.568,0,1,0,0,1.135h1.244a6.929,6.929,0,0,0,13.792,0h1.244a.568.568,0,1,0,0-1.135H33.313v-1.8h1.244a.569.569,0,1,0,0-1.137H33.313v-1.8h.19a4.024,4.024,0,0,0,4.024-3.976,11.744,11.744,0,0,1,2.968-7.763,18.84,18.84,0,0,0-.766-25.845,19.347,19.347,0,0,0-27.1-.1M26.417,54.153a5.608,5.608,0,0,1-5.651-5.018h11.3a5.685,5.685,0,0,1-5.651,5.018M32.068,47.9h-11.3v-1.8h11.4v1.8Zm0-2.936h-11.3v-1.8h11.4v1.8Zm7.47-14.294a12.8,12.8,0,0,0-3.257,8.52A2.764,2.764,0,0,1,33.5,41.939H26.7V27.171a4.183,4.183,0,1,0,2.969-7.1,4.457,4.457,0,0,0-3.639,1.987,4.221,4.221,0,1,0-.67,5.113V42.035h-6.8a2.764,2.764,0,0,1-2.779-2.746,12.808,12.808,0,0,0-3.256-8.52,17.436,17.436,0,0,1,.862-24.33A18.105,18.105,0,0,1,26.034,1.232a17.922,17.922,0,0,1,17.909,17.8,16.588,16.588,0,0,1-4.405,11.645M26.7,24.237a2.969,2.969,0,1,1,2.969,2.935A2.967,2.967,0,0,1,26.7,24.237m-1.15,0a2.967,2.967,0,0,1-2.968,2.935,3.053,3.053,0,0,1-3.065-2.935,2.969,2.969,0,0,1,2.97-2.936,3.052,3.052,0,0,1,3.064,2.936" transform="translate(-0.368 0)"/>
    <path id="Trazado_817461" data-name="Trazado 817461" d="M26.488,4.4A14.814,14.814,0,0,0,16.145,8.566,14.189,14.189,0,0,0,11.835,18.7a.575.575,0,0,0,1.149,0,13.039,13.039,0,0,1,3.927-9.278,13.3,13.3,0,0,1,22.6,9.278.575.575,0,0,0,1.149,0A14.061,14.061,0,0,0,26.488,4.4" transform="translate(-0.631 -0.235)"/>
    <path id="Trazado_817462" data-name="Trazado 817462" d="M51.69,31.2a3.6,3.6,0,1,0,3.639,3.6,3.68,3.68,0,0,0-3.639-3.6m0,5.964A2.367,2.367,0,1,1,54.084,34.8a2.419,2.419,0,0,1-2.394,2.367" transform="translate(-2.561 -1.663)"/>
    <path id="Trazado_817463" data-name="Trazado 817463" d="M4.214,44.4a4.166,4.166,0,1,0,4.214,4.165A4.227,4.227,0,0,0,4.214,44.4m0,7.1a2.935,2.935,0,1,1,2.969-2.936A2.967,2.967,0,0,1,4.214,51.5" transform="translate(0 -2.366)"/>
    <path id="Trazado_817464" data-name="Trazado 817464" d="M45.777,1.9a.852.852,0,1,1-.862.852.857.857,0,0,1,.862-.852" transform="translate(-2.394 -0.101)"/>
    <path id="Trazado_817465" data-name="Trazado 817465" d="M52.15,21.9a.852.852,0,1,1-.862.851.857.857,0,0,1,.862-.851" transform="translate(-2.733 -1.167)"/>
    <path id="Trazado_817466" data-name="Trazado 817466" d="M4.705,6.3a.853.853,0,1,1-.862.852A.857.857,0,0,1,4.705,6.3" transform="translate(-0.205 -0.336)"/>
    <path id="Trazado_817467" data-name="Trazado 817467" d="M2.177,30.6a.852.852,0,1,1-.862.851.856.856,0,0,1,.862-.851" transform="translate(-0.07 -1.631)"/>
    <path id="Trazado_817468" data-name="Trazado 817468" d="M13.506,46.9a.852.852,0,1,1-.862.851.857.857,0,0,1,.862-.851" transform="translate(-0.674 -2.5)"/>
    <path id="Trazado_817469" data-name="Trazado 817469" d="M44.563,41.3a.853.853,0,1,1-.862.852.857.857,0,0,1,.862-.852" transform="translate(-2.329 -2.201)"/>
    <path id="Trazado_817470" data-name="Trazado 817470" d="M48.912,53.8a.853.853,0,1,1-.862.852.857.857,0,0,1,.862-.852" transform="translate(-2.561 -2.867)"/>
  </g>
</svg>
