<svg id="Grupo_1070638" data-name="Grupo 1070638" xmlns="http://www.w3.org/2000/svg" xmlns:xlink="http://www.w3.org/1999/xlink" width="56.345" height="58.8" viewBox="0 0 56.345 58.8">
  <defs>
    <clipPath id="clip-path">
      <rect id="Rect치ngulo_374616" data-name="Rect치ngulo 374616" width="56.345" height="58.8" transform="translate(0 0)" fill="none"/>
    </clipPath>
  </defs>
  <rect id="Rect치ngulo_374615" data-name="Rect치ngulo 374615" width="1.417" height="1.6" transform="translate(21.951 21)"/>
  <g id="Grupo_1070637" data-name="Grupo 1070637">
    <g id="Grupo_1070636" data-name="Grupo 1070636" clip-path="url(#clip-path)">
      <path id="Trazado_817482" data-name="Trazado 817482" d="M24.177,15a2.524,2.524,0,0,0-3.136,1.3l1.113.8c.2-.3.2-.4.4-.5.1-.1.2-.1.3-.2s.2-.1.4-.1a1.453,1.453,0,0,1,.608.2.6.6,0,0,1,.3.6c0,.2-.1.3-.2.5a3.834,3.834,0,0,1-1.214.9,1.621,1.621,0,0,0-.911,1.6h1.416a.592.592,0,0,1,.1-.4c.3-.4.708-.5,1.214-.8a1.586,1.586,0,0,0,.708-.7,1.678,1.678,0,0,0,.3-1,2.932,2.932,0,0,0-.2-1A1.813,1.813,0,0,0,24.177,15"/>
      <path id="Trazado_817483" data-name="Trazado 817483" d="M2.225,8.8a.9.9,0,1,1-.91.9.906.906,0,0,1,.91-.9"/>
      <path id="Trazado_817484" data-name="Trazado 817484" d="M4.147,38.2a.9.9,0,1,1-.911.9.9.9,0,0,1,.911-.9"/>
      <path id="Trazado_817485" data-name="Trazado 817485" d="M43.9,2.6a.9.9,0,1,1-.911.9.9.9,0,0,1,.911-.9"/>
      <path id="Trazado_817486" data-name="Trazado 817486" d="M47.443,18.8a.9.9,0,1,1-.911.9.906.906,0,0,1,.911-.9"/>
      <path id="Trazado_817487" data-name="Trazado 817487" d="M52.2,52.6a.9.9,0,1,1-.91.9.906.906,0,0,1,.91-.9"/>
      <path id="Trazado_817488" data-name="Trazado 817488" d="M39.856,32.1V42.3a.607.607,0,0,0,1.214,0V32.1a.649.649,0,0,0-.607-.6c-.3-.1-.607.2-.607.6"/>
      <path id="Trazado_817489" data-name="Trazado 817489" d="M44.611,42.9a.649.649,0,0,0,.607-.6V34.1A.607.607,0,0,0,44,34.1v8.2a.649.649,0,0,0,.607.6"/>
      <path id="Trazado_817490" data-name="Trazado 817490" d="M48.758,42.9a.649.649,0,0,0,.607-.6V36.2a.607.607,0,0,0-1.214,0v6.1a.58.58,0,0,0,.607.6"/>
      <path id="Trazado_817491" data-name="Trazado 817491" d="M54.423,27.4H41.07V5.7A5.73,5.73,0,0,0,35.3,0H12.644A5.731,5.731,0,0,0,6.878,5.7V53.1a5.73,5.73,0,0,0,5.766,5.7H35.3a5.731,5.731,0,0,0,5.766-5.7V51A12.913,12.913,0,0,0,55.03,38.2V28a.58.58,0,0,0-.607-.6M39.856,53.1A4.465,4.465,0,0,1,35.4,57.5H12.644a4.464,4.464,0,0,1-4.45-4.4V5.7a4.464,4.464,0,0,1,4.45-4.4H35.3a4.465,4.465,0,0,1,4.451,4.4V16.6a3.913,3.913,0,0,0-2.529-.9V7.1a3.348,3.348,0,0,0-3.338-3.3H29.032a.649.649,0,0,0-.607.6v.2a1.008,1.008,0,0,1-1.011,1H20.636a1.008,1.008,0,0,1-1.012-1V4.4a.649.649,0,0,0-.607-.6H14.162a3.349,3.349,0,0,0-3.339,3.3V51.8a3.349,3.349,0,0,0,3.339,3.3H34.09a3.348,3.348,0,0,0,3.338-3.3V50.2a10.487,10.487,0,0,0,2.529.7ZM33.685,19.3V30H31.864a2.7,2.7,0,0,0-2.731,2.7v5.4a12.966,12.966,0,0,0,6.98,11.4v2.2a2.017,2.017,0,0,1-2.023,2H14.061a2.018,2.018,0,0,1-2.024-2V48.1H26.6a.6.6,0,1,0,0-1.2H12.037V7.1a2.018,2.018,0,0,1,2.024-2H18.41a2.195,2.195,0,0,0,2.226,1.8h6.778A2.266,2.266,0,0,0,29.639,5h4.35a2.017,2.017,0,0,1,2.023,2v8.9a3.85,3.85,0,0,0-2.327,3.4m20.03,18.9a11.735,11.735,0,0,1-23.469,0V32.8a1.547,1.547,0,0,1,1.517-1.5h1.922V37A.607.607,0,0,0,34.9,37V19.3a2.428,2.428,0,0,1,4.856,0V28a.649.649,0,0,0,.607.6H53.614v9.6Z"/>
      <path id="Trazado_817492" data-name="Trazado 817492" d="M23.368,10a8.8,8.8,0,1,0,8.9,8.8,8.864,8.864,0,0,0-8.9-8.8m0,16.3a7.6,7.6,0,0,1-7.587-7.5,7.588,7.588,0,0,1,15.174,0,7.6,7.6,0,0,1-7.587,7.5"/>
      <path id="Trazado_817493" data-name="Trazado 817493" d="M52.5,7.5a3.8,3.8,0,1,0,3.844,3.8A3.887,3.887,0,0,0,52.5,7.5m0,6.3a2.5,2.5,0,1,1,2.529-2.5A2.555,2.555,0,0,1,52.5,13.8"/>
      <path id="Trazado_817494" data-name="Trazado 817494" d="M2.529,45a2.5,2.5,0,1,0,0,5,2.5,2.5,0,1,0,0-5m0,3.8a1.3,1.3,0,1,1,0-2.6,1.331,1.331,0,0,1,1.315,1.3,1.406,1.406,0,0,1-1.315,1.3"/>
    </g>
  </g>
</svg>
