<svg xmlns="http://www.w3.org/2000/svg" xmlns:xlink="http://www.w3.org/1999/xlink" width="55.739" height="51.8" viewBox="0 0 55.739 51.8">
  <defs>
    <clipPath id="clip-path">
      <rect id="Rectángulo_374612" data-name="Rectángulo 374612" width="55.739" height="51.8" transform="translate(0 0)" fill="none"/>
    </clipPath>
  </defs>
  <g id="Grupo_1070631" data-name="Grupo 1070631" transform="translate(0 0)">
    <g id="Grupo_1070630" data-name="Grupo 1070630" clip-path="url(#clip-path)">
      <path id="Trazado_817448" data-name="Trazado 817448" d="M14.264,47.5a.9.9,0,1,1-.91.9.9.9,0,0,1,.91-.9"/>
      <path id="Trazado_817449" data-name="Trazado 817449" d="M52.2,35a.9.9,0,1,1-.91.9.9.9,0,0,1,.91-.9"/>
      <path id="Trazado_817450" data-name="Trazado 817450" d="M51.49,1.9a.9.9,0,1,1-.91.9.9.9,0,0,1,.91-.9"/>
      <path id="Trazado_817451" data-name="Trazado 817451" d="M47.443,50a.9.9,0,1,1-.91.9.906.906,0,0,1,.91-.9"/>
      <path id="Trazado_817452" data-name="Trazado 817452" d="M9.206,0a.9.9,0,0,1,.91.9A.911.911,0,0,1,8.3.9.906.906,0,0,1,9.206,0"/>
      <path id="Trazado_817453" data-name="Trazado 817453" d="M2.226,15a.9.9,0,1,1-.91.9.906.906,0,0,1,.91-.9"/>
      <path id="Trazado_817454" data-name="Trazado 817454" d="M7.891,31.9a.9.9,0,1,1-.91.9.9.9,0,0,1,.91-.9"/>
      <path id="Trazado_817455" data-name="Trazado 817455" d="M3.845,38.1a3.8,3.8,0,1,0,0,7.6,3.82,3.82,0,0,0,3.844-3.8,3.887,3.887,0,0,0-3.844-3.8m0,6.2a2.5,2.5,0,1,1,0-5,2.489,2.489,0,0,1,2.528,2.5,2.556,2.556,0,0,1-2.528,2.5"/>
      <path id="Trazado_817456" data-name="Trazado 817456" d="M48.961,19l-1.416-1.6a8.6,8.6,0,0,0,.708-1.7l2.125-.2a.648.648,0,0,0,.606-.6v-4a.648.648,0,0,0-.606-.6l-2.125-.2a12.138,12.138,0,0,0-.708-1.7l1.416-1.6a.6.6,0,0,0,0-.8L46.129,3.2a.622.622,0,0,0-.81,0L43.7,4.6a8.815,8.815,0,0,0-1.72-.7l-.2-2.1a.649.649,0,0,0-.607-.6H37.126a.65.65,0,0,0-.608.6l-.1.8A17.273,17.273,0,0,0,27.212,0H25.9A16.957,16.957,0,0,0,8.8,16.8L6.272,26.7a.642.642,0,0,0,.607.8h5.665V39.4a.649.649,0,0,0,.607.6h7.081V50.8c.1.2.2.4.4.4H43.5a.648.648,0,0,0,.606-.6V21.9l.91.8a.622.622,0,0,0,.81,0l2.833-2.8c.506-.3.506-.6.3-.9m-35,19.7V26.8a.649.649,0,0,0-.607-.6H7.89c2.428-9.8,2.328-9.2,2.328-9.4A15.711,15.711,0,0,1,26,1.2h1.315a15.546,15.546,0,0,1,8.9,2.7,10.214,10.214,0,0,0-1.517.7L33.079,3.2a.622.622,0,0,0-.81,0L29.437,6a.6.6,0,0,0,0,.8l1.416,1.6a8.727,8.727,0,0,0-.708,1.7l-2.124.2a.649.649,0,0,0-.607.6v4a.649.649,0,0,0,.607.6l2.124.2a12.383,12.383,0,0,0,.708,1.7L29.437,19a.6.6,0,0,0,0,.8l2.832,2.8a.622.622,0,0,0,.81,0L34.7,21.2a8.764,8.764,0,0,0,1.72.7l.2,2.1a.649.649,0,0,0,.607.6h4.046a.649.649,0,0,0,.607-.6l.2-2.1c.4-.1.709-.3,1.113-.4v16L21.648,45.8V39.2a.649.649,0,0,0-.607-.6H13.96Zm7.587,8.6L43.094,39v2.4L21.547,49.7ZM24.278,50l18.715-7.2V50ZM45.623,21.4,44.1,20.1A.628.628,0,0,0,43.4,20a8.642,8.642,0,0,1-2.225.9c-.3.1-.405.3-.506.6l-.2,2H37.632l-.2-2a.635.635,0,0,0-.506-.6A8.641,8.641,0,0,1,34.7,20a.63.63,0,0,0-.709.1l-1.416,1.3-2.022-2,1.314-1.5a.613.613,0,0,0,.1-.7,8.412,8.412,0,0,1-.911-2.2c-.1-.3-.3-.4-.607-.5l-2.023-.2V11.5l2.023-.2a.639.639,0,0,0,.607-.5,8.412,8.412,0,0,1,.911-2.2.613.613,0,0,0-.1-.7L30.551,6.4l2.022-2,1.518,1.3a.628.628,0,0,0,.708.1,8.642,8.642,0,0,1,2.225-.9c.3-.1.405-.3.506-.6l.2-2h2.732l.2,2a.635.635,0,0,0,.506.6,8.642,8.642,0,0,1,2.225.9.628.628,0,0,0,.708-.1l1.518-1.3,2.023,2L46.331,7.9a.611.611,0,0,0-.1.7,8.409,8.409,0,0,1,.91,2.2c.1.3.3.4.607.5l2.023.2v2.9l-2.023.2a.639.639,0,0,0-.607.5,8.409,8.409,0,0,1-.91,2.2.611.611,0,0,0,.1.7l1.214,1.4Z"/>
      <path id="Trazado_817457" data-name="Trazado 817457" d="M39.048,6.5a6.484,6.484,0,0,0-6.475,6.4,6.475,6.475,0,0,0,12.949,0,6.418,6.418,0,0,0-6.474-6.4m0,11.6a5.2,5.2,0,1,1,5.26-5.2,5.195,5.195,0,0,1-5.26,5.2"/>
      <path id="Trazado_817458" data-name="Trazado 817458" d="M39.048,9.2a3.7,3.7,0,1,0,3.743,3.7,3.65,3.65,0,0,0-3.743-3.7m0,6.2a2.5,2.5,0,1,1,2.528-2.5,2.49,2.49,0,0,1-2.528,2.5"/>
      <path id="Trazado_817459" data-name="Trazado 817459" d="M51.9,21.8a3.8,3.8,0,1,0,3.845,3.8A3.888,3.888,0,0,0,51.9,21.8m0,6.3a2.5,2.5,0,1,1,2.529-2.5A2.555,2.555,0,0,1,51.9,28.1"/>
    </g>
  </g>
</svg>
