<svg xmlns="http://www.w3.org/2000/svg" width="715" height="434" viewBox="0 0 715 434">
  <g id="Grupo_1070771" data-name="Grupo 1070771" transform="translate(-390 -6518)">
    <path id="Trazado_817541" data-name="Trazado 817541" d="M0,0H715V434H0Z" transform="translate(390 6518)" fill="#f3f9ff"/>
    <path id="Trazado_817505" data-name="Trazado 817505" d="M-4207-6649.166v320.172h505" transform="translate(4699 13224.666)" fill="none" stroke="#000" stroke-width="2"/>
    <path id="Trazado_817542" data-name="Trazado 817542" d="M7.5,0,15,13H0Z" transform="translate(485 6576)"/>
    <path id="Trazado_817557" data-name="Trazado 817557" d="M7.5,0,15,13H0Z" transform="translate(1000 6888) rotate(90)"/>
    <g id="Trazado_817553" data-name="Trazado 817553" transform="translate(533 6774)" fill="#2efec7">
      <path d="M 41 30.5 L 6 30.5 C 2.967289924621582 30.5 0.5 28.0327091217041 0.5 25 L 0.5 6 C 0.5 2.967289924621582 2.967289924621582 0.5 6 0.5 L 41 0.5 C 44.03271102905273 0.5 46.5 2.967289924621582 46.5 6 L 46.5 25 C 46.5 28.0327091217041 44.03271102905273 30.5 41 30.5 Z" stroke="none"/>
      <path d="M 6 1 C 3.242988586425781 1 1 3.242990493774414 1 6 L 1 25 C 1 27.75700950622559 3.242988586425781 30 6 30 L 41 30 C 43.75701141357422 30 46 27.75700950622559 46 25 L 46 6 C 46 3.242990493774414 43.75701141357422 1 41 1 L 6 1 M 6 0 L 41 0 C 44.3137092590332 0 47 2.686290740966797 47 6 L 47 25 C 47 28.3137092590332 44.3137092590332 31 41 31 L 6 31 C 2.686290740966797 31 0 28.3137092590332 0 25 L 0 6 C 0 2.686290740966797 2.686290740966797 0 6 0 Z" stroke="none" fill="#707070"/>
    </g>
    <g id="Trazado_817556" data-name="Trazado 817556" transform="translate(580 6827)" fill="#2efec7">
      <path d="M 41 30.5 L 6 30.5 C 2.967289924621582 30.5 0.5 28.0327091217041 0.5 25 L 0.5 6 C 0.5 2.967289924621582 2.967289924621582 0.5 6 0.5 L 41 0.5 C 44.03271102905273 0.5 46.5 2.967289924621582 46.5 6 L 46.5 25 C 46.5 28.0327091217041 44.03271102905273 30.5 41 30.5 Z" stroke="none"/>
      <path d="M 6 1 C 3.242988586425781 1 1 3.242990493774414 1 6 L 1 25 C 1 27.75700950622559 3.242988586425781 30 6 30 L 41 30 C 43.75701141357422 30 46 27.75700950622559 46 25 L 46 6 C 46 3.242990493774414 43.75701141357422 1 41 1 L 6 1 M 6 0 L 41 0 C 44.3137092590332 0 47 2.686290740966797 47 6 L 47 25 C 47 28.3137092590332 44.3137092590332 31 41 31 L 6 31 C 2.686290740966797 31 0 28.3137092590332 0 25 L 0 6 C 0 2.686290740966797 2.686290740966797 0 6 0 Z" stroke="none" fill="#707070"/>
    </g>
    <g id="Trazado_817554" data-name="Trazado 817554" transform="translate(618 6780)" fill="#2efec7">
      <path d="M 41 30.5 L 6 30.5 C 2.967289924621582 30.5 0.5 28.0327091217041 0.5 25 L 0.5 6 C 0.5 2.967289924621582 2.967289924621582 0.5 6 0.5 L 41 0.5 C 44.03271102905273 0.5 46.5 2.967289924621582 46.5 6 L 46.5 25 C 46.5 28.0327091217041 44.03271102905273 30.5 41 30.5 Z" stroke="none"/>
      <path d="M 6 1 C 3.242988586425781 1 1 3.242990493774414 1 6 L 1 25 C 1 27.75700950622559 3.242988586425781 30 6 30 L 41 30 C 43.75701141357422 30 46 27.75700950622559 46 25 L 46 6 C 46 3.242990493774414 43.75701141357422 1 41 1 L 6 1 M 6 0 L 41 0 C 44.3137092590332 0 47 2.686290740966797 47 6 L 47 25 C 47 28.3137092590332 44.3137092590332 31 41 31 L 6 31 C 2.686290740966797 31 0 28.3137092590332 0 25 L 0 6 C 0 2.686290740966797 2.686290740966797 0 6 0 Z" stroke="none" fill="#707070"/>
    </g>
    <g id="Trazado_817551" data-name="Trazado 817551" transform="translate(560 6730)" fill="#2efec7">
      <path d="M 41 30.5 L 6 30.5 C 2.967289924621582 30.5 0.5 28.0327091217041 0.5 25 L 0.5 6 C 0.5 2.967289924621582 2.967289924621582 0.5 6 0.5 L 41 0.5 C 44.03271102905273 0.5 46.5 2.967289924621582 46.5 6 L 46.5 25 C 46.5 28.0327091217041 44.03271102905273 30.5 41 30.5 Z" stroke="none"/>
      <path d="M 6 1 C 3.242988586425781 1 1 3.242990493774414 1 6 L 1 25 C 1 27.75700950622559 3.242988586425781 30 6 30 L 41 30 C 43.75701141357422 30 46 27.75700950622559 46 25 L 46 6 C 46 3.242990493774414 43.75701141357422 1 41 1 L 6 1 M 6 0 L 41 0 C 44.3137092590332 0 47 2.686290740966797 47 6 L 47 25 C 47 28.3137092590332 44.3137092590332 31 41 31 L 6 31 C 2.686290740966797 31 0 28.3137092590332 0 25 L 0 6 C 0 2.686290740966797 2.686290740966797 0 6 0 Z" stroke="none" fill="#707070"/>
    </g>
    <g id="Trazado_817555" data-name="Trazado 817555" transform="translate(665 6820)" fill="#2efec7">
      <path d="M 41 30.5 L 6 30.5 C 2.967289924621582 30.5 0.5 28.0327091217041 0.5 25 L 0.5 6 C 0.5 2.967289924621582 2.967289924621582 0.5 6 0.5 L 41 0.5 C 44.03271102905273 0.5 46.5 2.967289924621582 46.5 6 L 46.5 25 C 46.5 28.0327091217041 44.03271102905273 30.5 41 30.5 Z" stroke="none"/>
      <path d="M 6 1 C 3.242988586425781 1 1 3.242990493774414 1 6 L 1 25 C 1 27.75700950622559 3.242988586425781 30 6 30 L 41 30 C 43.75701141357422 30 46 27.75700950622559 46 25 L 46 6 C 46 3.242990493774414 43.75701141357422 1 41 1 L 6 1 M 6 0 L 41 0 C 44.3137092590332 0 47 2.686290740966797 47 6 L 47 25 C 47 28.3137092590332 44.3137092590332 31 41 31 L 6 31 C 2.686290740966797 31 0 28.3137092590332 0 25 L 0 6 C 0 2.686290740966797 2.686290740966797 0 6 0 Z" stroke="none" fill="#707070"/>
    </g>
    <g id="Trazado_817552" data-name="Trazado 817552" transform="translate(685 6749)" fill="#2efec7">
      <path d="M 41 30.5 L 6 30.5 C 2.967289924621582 30.5 0.5 28.0327091217041 0.5 25 L 0.5 6 C 0.5 2.967289924621582 2.967289924621582 0.5 6 0.5 L 41 0.5 C 44.03271102905273 0.5 46.5 2.967289924621582 46.5 6 L 46.5 25 C 46.5 28.0327091217041 44.03271102905273 30.5 41 30.5 Z" stroke="none"/>
      <path d="M 6 1 C 3.242988586425781 1 1 3.242990493774414 1 6 L 1 25 C 1 27.75700950622559 3.242988586425781 30 6 30 L 41 30 C 43.75701141357422 30 46 27.75700950622559 46 25 L 46 6 C 46 3.242990493774414 43.75701141357422 1 41 1 L 6 1 M 6 0 L 41 0 C 44.3137092590332 0 47 2.686290740966797 47 6 L 47 25 C 47 28.3137092590332 44.3137092590332 31 41 31 L 6 31 C 2.686290740966797 31 0 28.3137092590332 0 25 L 0 6 C 0 2.686290740966797 2.686290740966797 0 6 0 Z" stroke="none" fill="#707070"/>
    </g>
    <g id="Trazado_817548" data-name="Trazado 817548" transform="translate(638 6704)" fill="#2efec7">
      <path d="M 41 30.5 L 6 30.5 C 2.967289924621582 30.5 0.5 28.0327091217041 0.5 25 L 0.5 6 C 0.5 2.967289924621582 2.967289924621582 0.5 6 0.5 L 41 0.5 C 44.03271102905273 0.5 46.5 2.967289924621582 46.5 6 L 46.5 25 C 46.5 28.0327091217041 44.03271102905273 30.5 41 30.5 Z" stroke="none"/>
      <path d="M 6 1 C 3.242988586425781 1 1 3.242990493774414 1 6 L 1 25 C 1 27.75700950622559 3.242988586425781 30 6 30 L 41 30 C 43.75701141357422 30 46 27.75700950622559 46 25 L 46 6 C 46 3.242990493774414 43.75701141357422 1 41 1 L 6 1 M 6 0 L 41 0 C 44.3137092590332 0 47 2.686290740966797 47 6 L 47 25 C 47 28.3137092590332 44.3137092590332 31 41 31 L 6 31 C 2.686290740966797 31 0 28.3137092590332 0 25 L 0 6 C 0 2.686290740966797 2.686290740966797 0 6 0 Z" stroke="none" fill="#707070"/>
    </g>
    <g id="Trazado_817546" data-name="Trazado 817546" transform="translate(757 6662)" fill="#ffb476">
      <path d="M 41 30.5 L 6 30.5 C 2.967289924621582 30.5 0.5 28.0327091217041 0.5 25 L 0.5 6 C 0.5 2.967289924621582 2.967289924621582 0.5 6 0.5 L 41 0.5 C 44.03271102905273 0.5 46.5 2.967289924621582 46.5 6 L 46.5 25 C 46.5 28.0327091217041 44.03271102905273 30.5 41 30.5 Z" stroke="none"/>
      <path d="M 6 1 C 3.242988586425781 1 1 3.242990493774414 1 6 L 1 25 C 1 27.75700950622559 3.242988586425781 30 6 30 L 41 30 C 43.75701141357422 30 46 27.75700950622559 46 25 L 46 6 C 46 3.242990493774414 43.75701141357422 1 41 1 L 6 1 M 6 0 L 41 0 C 44.3137092590332 0 47 2.686290740966797 47 6 L 47 25 C 47 28.3137092590332 44.3137092590332 31 41 31 L 6 31 C 2.686290740966797 31 0 28.3137092590332 0 25 L 0 6 C 0 2.686290740966797 2.686290740966797 0 6 0 Z" stroke="none" fill="#707070"/>
    </g>
    <g id="Trazado_817550" data-name="Trazado 817550" transform="translate(804 6715)" fill="#ffb476">
      <path d="M 41 30.5 L 6 30.5 C 2.967289924621582 30.5 0.5 28.0327091217041 0.5 25 L 0.5 6 C 0.5 2.967289924621582 2.967289924621582 0.5 6 0.5 L 41 0.5 C 44.03271102905273 0.5 46.5 2.967289924621582 46.5 6 L 46.5 25 C 46.5 28.0327091217041 44.03271102905273 30.5 41 30.5 Z" stroke="none"/>
      <path d="M 6 1 C 3.242988586425781 1 1 3.242990493774414 1 6 L 1 25 C 1 27.75700950622559 3.242988586425781 30 6 30 L 41 30 C 43.75701141357422 30 46 27.75700950622559 46 25 L 46 6 C 46 3.242990493774414 43.75701141357422 1 41 1 L 6 1 M 6 0 L 41 0 C 44.3137092590332 0 47 2.686290740966797 47 6 L 47 25 C 47 28.3137092590332 44.3137092590332 31 41 31 L 6 31 C 2.686290740966797 31 0 28.3137092590332 0 25 L 0 6 C 0 2.686290740966797 2.686290740966797 0 6 0 Z" stroke="none" fill="#707070"/>
    </g>
    <g id="Trazado_817547" data-name="Trazado 817547" transform="translate(842 6668)" fill="#ffb476">
      <path d="M 41 30.5 L 6 30.5 C 2.967289924621582 30.5 0.5 28.0327091217041 0.5 25 L 0.5 6 C 0.5 2.967289924621582 2.967289924621582 0.5 6 0.5 L 41 0.5 C 44.03271102905273 0.5 46.5 2.967289924621582 46.5 6 L 46.5 25 C 46.5 28.0327091217041 44.03271102905273 30.5 41 30.5 Z" stroke="none"/>
      <path d="M 6 1 C 3.242988586425781 1 1 3.242990493774414 1 6 L 1 25 C 1 27.75700950622559 3.242988586425781 30 6 30 L 41 30 C 43.75701141357422 30 46 27.75700950622559 46 25 L 46 6 C 46 3.242990493774414 43.75701141357422 1 41 1 L 6 1 M 6 0 L 41 0 C 44.3137092590332 0 47 2.686290740966797 47 6 L 47 25 C 47 28.3137092590332 44.3137092590332 31 41 31 L 6 31 C 2.686290740966797 31 0 28.3137092590332 0 25 L 0 6 C 0 2.686290740966797 2.686290740966797 0 6 0 Z" stroke="none" fill="#707070"/>
    </g>
    <g id="Trazado_817543" data-name="Trazado 817543" transform="translate(784 6618)" fill="#ffb476">
      <path d="M 41 30.5 L 6 30.5 C 2.967289924621582 30.5 0.5 28.0327091217041 0.5 25 L 0.5 6 C 0.5 2.967289924621582 2.967289924621582 0.5 6 0.5 L 41 0.5 C 44.03271102905273 0.5 46.5 2.967289924621582 46.5 6 L 46.5 25 C 46.5 28.0327091217041 44.03271102905273 30.5 41 30.5 Z" stroke="none"/>
      <path d="M 6 1 C 3.242988586425781 1 1 3.242990493774414 1 6 L 1 25 C 1 27.75700950622559 3.242988586425781 30 6 30 L 41 30 C 43.75701141357422 30 46 27.75700950622559 46 25 L 46 6 C 46 3.242990493774414 43.75701141357422 1 41 1 L 6 1 M 6 0 L 41 0 C 44.3137092590332 0 47 2.686290740966797 47 6 L 47 25 C 47 28.3137092590332 44.3137092590332 31 41 31 L 6 31 C 2.686290740966797 31 0 28.3137092590332 0 25 L 0 6 C 0 2.686290740966797 2.686290740966797 0 6 0 Z" stroke="none" fill="#707070"/>
    </g>
    <g id="Trazado_817549" data-name="Trazado 817549" transform="translate(889 6708)" fill="#ffb476">
      <path d="M 41 30.5 L 6 30.5 C 2.967289924621582 30.5 0.5 28.0327091217041 0.5 25 L 0.5 6 C 0.5 2.967289924621582 2.967289924621582 0.5 6 0.5 L 41 0.5 C 44.03271102905273 0.5 46.5 2.967289924621582 46.5 6 L 46.5 25 C 46.5 28.0327091217041 44.03271102905273 30.5 41 30.5 Z" stroke="none"/>
      <path d="M 6 1 C 3.242988586425781 1 1 3.242990493774414 1 6 L 1 25 C 1 27.75700950622559 3.242988586425781 30 6 30 L 41 30 C 43.75701141357422 30 46 27.75700950622559 46 25 L 46 6 C 46 3.242990493774414 43.75701141357422 1 41 1 L 6 1 M 6 0 L 41 0 C 44.3137092590332 0 47 2.686290740966797 47 6 L 47 25 C 47 28.3137092590332 44.3137092590332 31 41 31 L 6 31 C 2.686290740966797 31 0 28.3137092590332 0 25 L 0 6 C 0 2.686290740966797 2.686290740966797 0 6 0 Z" stroke="none" fill="#707070"/>
    </g>
    <g id="Trazado_817545" data-name="Trazado 817545" transform="translate(909 6637)" fill="#ffb476">
      <path d="M 41 30.5 L 6 30.5 C 2.967289924621582 30.5 0.5 28.0327091217041 0.5 25 L 0.5 6 C 0.5 2.967289924621582 2.967289924621582 0.5 6 0.5 L 41 0.5 C 44.03271102905273 0.5 46.5 2.967289924621582 46.5 6 L 46.5 25 C 46.5 28.0327091217041 44.03271102905273 30.5 41 30.5 Z" stroke="none"/>
      <path d="M 6 1 C 3.242988586425781 1 1 3.242990493774414 1 6 L 1 25 C 1 27.75700950622559 3.242988586425781 30 6 30 L 41 30 C 43.75701141357422 30 46 27.75700950622559 46 25 L 46 6 C 46 3.242990493774414 43.75701141357422 1 41 1 L 6 1 M 6 0 L 41 0 C 44.3137092590332 0 47 2.686290740966797 47 6 L 47 25 C 47 28.3137092590332 44.3137092590332 31 41 31 L 6 31 C 2.686290740966797 31 0 28.3137092590332 0 25 L 0 6 C 0 2.686290740966797 2.686290740966797 0 6 0 Z" stroke="none" fill="#707070"/>
    </g>
    <g id="Trazado_817544" data-name="Trazado 817544" transform="translate(862 6592)" fill="#ffb476">
      <path d="M 41 30.5 L 6 30.5 C 2.967289924621582 30.5 0.5 28.0327091217041 0.5 25 L 0.5 6 C 0.5 2.967289924621582 2.967289924621582 0.5 6 0.5 L 41 0.5 C 44.03271102905273 0.5 46.5 2.967289924621582 46.5 6 L 46.5 25 C 46.5 28.0327091217041 44.03271102905273 30.5 41 30.5 Z" stroke="none"/>
      <path d="M 6 1 C 3.242988586425781 1 1 3.242990493774414 1 6 L 1 25 C 1 27.75700950622559 3.242988586425781 30 6 30 L 41 30 C 43.75701141357422 30 46 27.75700950622559 46 25 L 46 6 C 46 3.242990493774414 43.75701141357422 1 41 1 L 6 1 M 6 0 L 41 0 C 44.3137092590332 0 47 2.686290740966797 47 6 L 47 25 C 47 28.3137092590332 44.3137092590332 31 41 31 L 6 31 C 2.686290740966797 31 0 28.3137092590332 0 25 L 0 6 C 0 2.686290740966797 2.686290740966797 0 6 0 Z" stroke="none" fill="#707070"/>
    </g>
  </g>
</svg>
