<svg xmlns="http://www.w3.org/2000/svg" width="610" height="434" viewBox="0 0 610 434">
  <g id="Grupo_1070773" data-name="Grupo 1070773" transform="translate(-810 -7201)">
    <path id="Trazado_817580" data-name="Trazado 817580" d="M0,0H610V434H0Z" transform="translate(810 7201)" fill="#f3f9ff"/>
    <path id="Trazado_817514" data-name="Trazado 817514" d="M-4207-6649.166v320.172h505" transform="translate(5067 13907.666)" fill="none" stroke="#000" stroke-width="2"/>
    <path id="Trazado_817599" data-name="Trazado 817599" d="M7.5,0,15,13H0Z" transform="translate(853 7259)"/>
    <path id="Trazado_817601" data-name="Trazado 817601" d="M7.5,0,15,13H0Z" transform="translate(1368 7597) rotate(90)"/>
    <g id="Trazado_817595" data-name="Trazado 817595" transform="translate(915 7472)" fill="#58f4cb">
      <path d="M 41 30.5 L 6 30.5 C 2.967289924621582 30.5 0.5 28.0327091217041 0.5 25 L 0.5 6 C 0.5 2.967289924621582 2.967289924621582 0.5 6 0.5 L 41 0.5 C 44.03271102905273 0.5 46.5 2.967289924621582 46.5 6 L 46.5 25 C 46.5 28.0327091217041 44.03271102905273 30.5 41 30.5 Z" stroke="none"/>
      <path d="M 6 1 C 3.242988586425781 1 1 3.242990493774414 1 6 L 1 25 C 1 27.75700950622559 3.242988586425781 30 6 30 L 41 30 C 43.75701141357422 30 46 27.75700950622559 46 25 L 46 6 C 46 3.242990493774414 43.75701141357422 1 41 1 L 6 1 M 6 0 L 41 0 C 44.3137092590332 0 47 2.686290740966797 47 6 L 47 25 C 47 28.3137092590332 44.3137092590332 31 41 31 L 6 31 C 2.686290740966797 31 0 28.3137092590332 0 25 L 0 6 C 0 2.686290740966797 2.686290740966797 0 6 0 Z" stroke="none" fill="#707070"/>
    </g>
    <g id="Trazado_817600" data-name="Trazado 817600" transform="translate(948 7510)" fill="#58f4cb">
      <path d="M 41 30.5 L 6 30.5 C 2.967289924621582 30.5 0.5 28.0327091217041 0.5 25 L 0.5 6 C 0.5 2.967289924621582 2.967289924621582 0.5 6 0.5 L 41 0.5 C 44.03271102905273 0.5 46.5 2.967289924621582 46.5 6 L 46.5 25 C 46.5 28.0327091217041 44.03271102905273 30.5 41 30.5 Z" stroke="none"/>
      <path d="M 6 1 C 3.242988586425781 1 1 3.242990493774414 1 6 L 1 25 C 1 27.75700950622559 3.242988586425781 30 6 30 L 41 30 C 43.75701141357422 30 46 27.75700950622559 46 25 L 46 6 C 46 3.242990493774414 43.75701141357422 1 41 1 L 6 1 M 6 0 L 41 0 C 44.3137092590332 0 47 2.686290740966797 47 6 L 47 25 C 47 28.3137092590332 44.3137092590332 31 41 31 L 6 31 C 2.686290740966797 31 0 28.3137092590332 0 25 L 0 6 C 0 2.686290740966797 2.686290740966797 0 6 0 Z" stroke="none" fill="#707070"/>
    </g>
    <g id="Trazado_817596" data-name="Trazado 817596" transform="translate(986 7472)" fill="#78edce">
      <path d="M 41 30.5 L 6 30.5 C 2.967289924621582 30.5 0.5 28.0327091217041 0.5 25 L 0.5 6 C 0.5 2.967289924621582 2.967289924621582 0.5 6 0.5 L 41 0.5 C 44.03271102905273 0.5 46.5 2.967289924621582 46.5 6 L 46.5 25 C 46.5 28.0327091217041 44.03271102905273 30.5 41 30.5 Z" stroke="none"/>
      <path d="M 6 1 C 3.242988586425781 1 1 3.242990493774414 1 6 L 1 25 C 1 27.75700950622559 3.242988586425781 30 6 30 L 41 30 C 43.75701141357422 30 46 27.75700950622559 46 25 L 46 6 C 46 3.242990493774414 43.75701141357422 1 41 1 L 6 1 M 6 0 L 41 0 C 44.3137092590332 0 47 2.686290740966797 47 6 L 47 25 C 47 28.3137092590332 44.3137092590332 31 41 31 L 6 31 C 2.686290740966797 31 0 28.3137092590332 0 25 L 0 6 C 0 2.686290740966797 2.686290740966797 0 6 0 Z" stroke="none" fill="#707070"/>
    </g>
    <g id="Trazado_817592" data-name="Trazado 817592" transform="translate(953 7435)" fill="#58f4cb">
      <path d="M 41 30.5 L 6 30.5 C 2.967289924621582 30.5 0.5 28.0327091217041 0.5 25 L 0.5 6 C 0.5 2.967289924621582 2.967289924621582 0.5 6 0.5 L 41 0.5 C 44.03271102905273 0.5 46.5 2.967289924621582 46.5 6 L 46.5 25 C 46.5 28.0327091217041 44.03271102905273 30.5 41 30.5 Z" stroke="none"/>
      <path d="M 6 1 C 3.242988586425781 1 1 3.242990493774414 1 6 L 1 25 C 1 27.75700950622559 3.242988586425781 30 6 30 L 41 30 C 43.75701141357422 30 46 27.75700950622559 46 25 L 46 6 C 46 3.242990493774414 43.75701141357422 1 41 1 L 6 1 M 6 0 L 41 0 C 44.3137092590332 0 47 2.686290740966797 47 6 L 47 25 C 47 28.3137092590332 44.3137092590332 31 41 31 L 6 31 C 2.686290740966797 31 0 28.3137092590332 0 25 L 0 6 C 0 2.686290740966797 2.686290740966797 0 6 0 Z" stroke="none" fill="#707070"/>
    </g>
    <g id="Trazado_817597" data-name="Trazado 817597" transform="translate(1033 7503)" fill="#58f4cb">
      <path d="M 41 30.5 L 6 30.5 C 2.967289924621582 30.5 0.5 28.0327091217041 0.5 25 L 0.5 6 C 0.5 2.967289924621582 2.967289924621582 0.5 6 0.5 L 41 0.5 C 44.03271102905273 0.5 46.5 2.967289924621582 46.5 6 L 46.5 25 C 46.5 28.0327091217041 44.03271102905273 30.5 41 30.5 Z" stroke="none"/>
      <path d="M 6 1 C 3.242988586425781 1 1 3.242990493774414 1 6 L 1 25 C 1 27.75700950622559 3.242988586425781 30 6 30 L 41 30 C 43.75701141357422 30 46 27.75700950622559 46 25 L 46 6 C 46 3.242990493774414 43.75701141357422 1 41 1 L 6 1 M 6 0 L 41 0 C 44.3137092590332 0 47 2.686290740966797 47 6 L 47 25 C 47 28.3137092590332 44.3137092590332 31 41 31 L 6 31 C 2.686290740966797 31 0 28.3137092590332 0 25 L 0 6 C 0 2.686290740966797 2.686290740966797 0 6 0 Z" stroke="none" fill="#707070"/>
    </g>
    <g id="Trazado_817591" data-name="Trazado 817591" transform="translate(1046 7450)" fill="#58f4cb">
      <path d="M 41 30.5 L 6 30.5 C 2.967289924621582 30.5 0.5 28.0327091217041 0.5 25 L 0.5 6 C 0.5 2.967289924621582 2.967289924621582 0.5 6 0.5 L 41 0.5 C 44.03271102905273 0.5 46.5 2.967289924621582 46.5 6 L 46.5 25 C 46.5 28.0327091217041 44.03271102905273 30.5 41 30.5 Z" stroke="none"/>
      <path d="M 6 1 C 3.242988586425781 1 1 3.242990493774414 1 6 L 1 25 C 1 27.75700950622559 3.242988586425781 30 6 30 L 41 30 C 43.75701141357422 30 46 27.75700950622559 46 25 L 46 6 C 46 3.242990493774414 43.75701141357422 1 41 1 L 6 1 M 6 0 L 41 0 C 44.3137092590332 0 47 2.686290740966797 47 6 L 47 25 C 47 28.3137092590332 44.3137092590332 31 41 31 L 6 31 C 2.686290740966797 31 0 28.3137092590332 0 25 L 0 6 C 0 2.686290740966797 2.686290740966797 0 6 0 Z" stroke="none" fill="#707070"/>
    </g>
    <g id="Trazado_817590" data-name="Trazado 817590" transform="translate(1016 7407)" fill="#58f4cb">
      <path d="M 41 30.5 L 6 30.5 C 2.967289924621582 30.5 0.5 28.0327091217041 0.5 25 L 0.5 6 C 0.5 2.967289924621582 2.967289924621582 0.5 6 0.5 L 41 0.5 C 44.03271102905273 0.5 46.5 2.967289924621582 46.5 6 L 46.5 25 C 46.5 28.0327091217041 44.03271102905273 30.5 41 30.5 Z" stroke="none"/>
      <path d="M 6 1 C 3.242988586425781 1 1 3.242990493774414 1 6 L 1 25 C 1 27.75700950622559 3.242988586425781 30 6 30 L 41 30 C 43.75701141357422 30 46 27.75700950622559 46 25 L 46 6 C 46 3.242990493774414 43.75701141357422 1 41 1 L 6 1 M 6 0 L 41 0 C 44.3137092590332 0 47 2.686290740966797 47 6 L 47 25 C 47 28.3137092590332 44.3137092590332 31 41 31 L 6 31 C 2.686290740966797 31 0 28.3137092590332 0 25 L 0 6 C 0 2.686290740966797 2.686290740966797 0 6 0 Z" stroke="none" fill="#707070"/>
    </g>
    <g id="Trazado_817585" data-name="Trazado 817585" transform="translate(1125 7345)" fill="#558fd8">
      <path d="M 41 30.5 L 6 30.5 C 2.967289924621582 30.5 0.5 28.0327091217041 0.5 25 L 0.5 6 C 0.5 2.967289924621582 2.967289924621582 0.5 6 0.5 L 41 0.5 C 44.03271102905273 0.5 46.5 2.967289924621582 46.5 6 L 46.5 25 C 46.5 28.0327091217041 44.03271102905273 30.5 41 30.5 Z" stroke="none"/>
      <path d="M 6 1 C 3.242988586425781 1 1 3.242990493774414 1 6 L 1 25 C 1 27.75700950622559 3.242988586425781 30 6 30 L 41 30 C 43.75701141357422 30 46 27.75700950622559 46 25 L 46 6 C 46 3.242990493774414 43.75701141357422 1 41 1 L 6 1 M 6 0 L 41 0 C 44.3137092590332 0 47 2.686290740966797 47 6 L 47 25 C 47 28.3137092590332 44.3137092590332 31 41 31 L 6 31 C 2.686290740966797 31 0 28.3137092590332 0 25 L 0 6 C 0 2.686290740966797 2.686290740966797 0 6 0 Z" stroke="none" fill="#707070"/>
    </g>
    <g id="Trazado_817588" data-name="Trazado 817588" transform="translate(1176 7381)" fill="#558fd8">
      <path d="M 41 30.5 L 6 30.5 C 2.967289924621582 30.5 0.5 28.0327091217041 0.5 25 L 0.5 6 C 0.5 2.967289924621582 2.967289924621582 0.5 6 0.5 L 41 0.5 C 44.03271102905273 0.5 46.5 2.967289924621582 46.5 6 L 46.5 25 C 46.5 28.0327091217041 44.03271102905273 30.5 41 30.5 Z" stroke="none"/>
      <path d="M 6 1 C 3.242988586425781 1 1 3.242990493774414 1 6 L 1 25 C 1 27.75700950622559 3.242988586425781 30 6 30 L 41 30 C 43.75701141357422 30 46 27.75700950622559 46 25 L 46 6 C 46 3.242990493774414 43.75701141357422 1 41 1 L 6 1 M 6 0 L 41 0 C 44.3137092590332 0 47 2.686290740966797 47 6 L 47 25 C 47 28.3137092590332 44.3137092590332 31 41 31 L 6 31 C 2.686290740966797 31 0 28.3137092590332 0 25 L 0 6 C 0 2.686290740966797 2.686290740966797 0 6 0 Z" stroke="none" fill="#707070"/>
    </g>
    <g id="Trazado_817586" data-name="Trazado 817586" transform="translate(1188 7342)" fill="#558fd8">
      <path d="M 41 30.5 L 6 30.5 C 2.967289924621582 30.5 0.5 28.0327091217041 0.5 25 L 0.5 6 C 0.5 2.967289924621582 2.967289924621582 0.5 6 0.5 L 41 0.5 C 44.03271102905273 0.5 46.5 2.967289924621582 46.5 6 L 46.5 25 C 46.5 28.0327091217041 44.03271102905273 30.5 41 30.5 Z" stroke="none"/>
      <path d="M 6 1 C 3.242988586425781 1 1 3.242990493774414 1 6 L 1 25 C 1 27.75700950622559 3.242988586425781 30 6 30 L 41 30 C 43.75701141357422 30 46 27.75700950622559 46 25 L 46 6 C 46 3.242990493774414 43.75701141357422 1 41 1 L 6 1 M 6 0 L 41 0 C 44.3137092590332 0 47 2.686290740966797 47 6 L 47 25 C 47 28.3137092590332 44.3137092590332 31 41 31 L 6 31 C 2.686290740966797 31 0 28.3137092590332 0 25 L 0 6 C 0 2.686290740966797 2.686290740966797 0 6 0 Z" stroke="none" fill="#707070"/>
    </g>
    <g id="Trazado_817583" data-name="Trazado 817583" transform="translate(1140 7301)" fill="#558fd8">
      <path d="M 41 30.5 L 6 30.5 C 2.967289924621582 30.5 0.5 28.0327091217041 0.5 25 L 0.5 6 C 0.5 2.967289924621582 2.967289924621582 0.5 6 0.5 L 41 0.5 C 44.03271102905273 0.5 46.5 2.967289924621582 46.5 6 L 46.5 25 C 46.5 28.0327091217041 44.03271102905273 30.5 41 30.5 Z" stroke="none"/>
      <path d="M 6 1 C 3.242988586425781 1 1 3.242990493774414 1 6 L 1 25 C 1 27.75700950622559 3.242988586425781 30 6 30 L 41 30 C 43.75701141357422 30 46 27.75700950622559 46 25 L 46 6 C 46 3.242990493774414 43.75701141357422 1 41 1 L 6 1 M 6 0 L 41 0 C 44.3137092590332 0 47 2.686290740966797 47 6 L 47 25 C 47 28.3137092590332 44.3137092590332 31 41 31 L 6 31 C 2.686290740966797 31 0 28.3137092590332 0 25 L 0 6 C 0 2.686290740966797 2.686290740966797 0 6 0 Z" stroke="none" fill="#707070"/>
    </g>
    <g id="Trazado_817589" data-name="Trazado 817589" transform="translate(1247 7394)" fill="#558fd8">
      <path d="M 41 30.5 L 6 30.5 C 2.967289924621582 30.5 0.5 28.0327091217041 0.5 25 L 0.5 6 C 0.5 2.967289924621582 2.967289924621582 0.5 6 0.5 L 41 0.5 C 44.03271102905273 0.5 46.5 2.967289924621582 46.5 6 L 46.5 25 C 46.5 28.0327091217041 44.03271102905273 30.5 41 30.5 Z" stroke="none"/>
      <path d="M 6 1 C 3.242988586425781 1 1 3.242990493774414 1 6 L 1 25 C 1 27.75700950622559 3.242988586425781 30 6 30 L 41 30 C 43.75701141357422 30 46 27.75700950622559 46 25 L 46 6 C 46 3.242990493774414 43.75701141357422 1 41 1 L 6 1 M 6 0 L 41 0 C 44.3137092590332 0 47 2.686290740966797 47 6 L 47 25 C 47 28.3137092590332 44.3137092590332 31 41 31 L 6 31 C 2.686290740966797 31 0 28.3137092590332 0 25 L 0 6 C 0 2.686290740966797 2.686290740966797 0 6 0 Z" stroke="none" fill="#707070"/>
    </g>
    <g id="Trazado_817587" data-name="Trazado 817587" transform="translate(1268 7353)" fill="#558fd8">
      <path d="M 41 30.5 L 6 30.5 C 2.967289924621582 30.5 0.5 28.0327091217041 0.5 25 L 0.5 6 C 0.5 2.967289924621582 2.967289924621582 0.5 6 0.5 L 41 0.5 C 44.03271102905273 0.5 46.5 2.967289924621582 46.5 6 L 46.5 25 C 46.5 28.0327091217041 44.03271102905273 30.5 41 30.5 Z" stroke="none"/>
      <path d="M 6 1 C 3.242988586425781 1 1 3.242990493774414 1 6 L 1 25 C 1 27.75700950622559 3.242988586425781 30 6 30 L 41 30 C 43.75701141357422 30 46 27.75700950622559 46 25 L 46 6 C 46 3.242990493774414 43.75701141357422 1 41 1 L 6 1 M 6 0 L 41 0 C 44.3137092590332 0 47 2.686290740966797 47 6 L 47 25 C 47 28.3137092590332 44.3137092590332 31 41 31 L 6 31 C 2.686290740966797 31 0 28.3137092590332 0 25 L 0 6 C 0 2.686290740966797 2.686290740966797 0 6 0 Z" stroke="none" fill="#707070"/>
    </g>
    <g id="Trazado_817584" data-name="Trazado 817584" transform="translate(1210 7306)" fill="#558fd8">
      <path d="M 41 30.5 L 6 30.5 C 2.967289924621582 30.5 0.5 28.0327091217041 0.5 25 L 0.5 6 C 0.5 2.967289924621582 2.967289924621582 0.5 6 0.5 L 41 0.5 C 44.03271102905273 0.5 46.5 2.967289924621582 46.5 6 L 46.5 25 C 46.5 28.0327091217041 44.03271102905273 30.5 41 30.5 Z" stroke="none"/>
      <path d="M 6 1 C 3.242988586425781 1 1 3.242990493774414 1 6 L 1 25 C 1 27.75700950622559 3.242988586425781 30 6 30 L 41 30 C 43.75701141357422 30 46 27.75700950622559 46 25 L 46 6 C 46 3.242990493774414 43.75701141357422 1 41 1 L 6 1 M 6 0 L 41 0 C 44.3137092590332 0 47 2.686290740966797 47 6 L 47 25 C 47 28.3137092590332 44.3137092590332 31 41 31 L 6 31 C 2.686290740966797 31 0 28.3137092590332 0 25 L 0 6 C 0 2.686290740966797 2.686290740966797 0 6 0 Z" stroke="none" fill="#707070"/>
    </g>
    <g id="Trazado_817594" data-name="Trazado 817594" transform="translate(895 7337.5)" fill="#f57f6c">
      <path d="M 41 30.5 L 6 30.5 C 2.967289924621582 30.5 0.5 28.0327091217041 0.5 25 L 0.5 6 C 0.5 2.967289924621582 2.967289924621582 0.5 6 0.5 L 41 0.5 C 44.03271102905273 0.5 46.5 2.967289924621582 46.5 6 L 46.5 25 C 46.5 28.0327091217041 44.03271102905273 30.5 41 30.5 Z" stroke="none"/>
      <path d="M 6 1 C 3.242988586425781 1 1 3.242990493774414 1 6 L 1 25 C 1 27.75700950622559 3.242988586425781 30 6 30 L 41 30 C 43.75701141357422 30 46 27.75700950622559 46 25 L 46 6 C 46 3.242990493774414 43.75701141357422 1 41 1 L 6 1 M 6 0 L 41 0 C 44.3137092590332 0 47 2.686290740966797 47 6 L 47 25 C 47 28.3137092590332 44.3137092590332 31 41 31 L 6 31 C 2.686290740966797 31 0 28.3137092590332 0 25 L 0 6 C 0 2.686290740966797 2.686290740966797 0 6 0 Z" stroke="none" fill="#707070"/>
    </g>
    <g id="Trazado_817593" data-name="Trazado 817593" transform="translate(942 7317)" fill="#ff6148">
      <path d="M 41 30.5 L 6 30.5 C 2.967289924621582 30.5 0.5 28.0327091217041 0.5 25 L 0.5 6 C 0.5 2.967289924621582 2.967289924621582 0.5 6 0.5 L 41 0.5 C 44.03271102905273 0.5 46.5 2.967289924621582 46.5 6 L 46.5 25 C 46.5 28.0327091217041 44.03271102905273 30.5 41 30.5 Z" stroke="none"/>
      <path d="M 6 1 C 3.242988586425781 1 1 3.242990493774414 1 6 L 1 25 C 1 27.75700950622559 3.242988586425781 30 6 30 L 41 30 C 43.75701141357422 30 46 27.75700950622559 46 25 L 46 6 C 46 3.242990493774414 43.75701141357422 1 41 1 L 6 1 M 6 0 L 41 0 C 44.3137092590332 0 47 2.686290740966797 47 6 L 47 25 C 47 28.3137092590332 44.3137092590332 31 41 31 L 6 31 C 2.686290740966797 31 0 28.3137092590332 0 25 L 0 6 C 0 2.686290740966797 2.686290740966797 0 6 0 Z" stroke="none" fill="#707070"/>
    </g>
    <g id="Trazado_817581" data-name="Trazado 817581" transform="translate(1163 7257)" fill="#558fd8">
      <path d="M 41 30.5 L 6 30.5 C 2.967289924621582 30.5 0.5 28.0327091217041 0.5 25 L 0.5 6 C 0.5 2.967289924621582 2.967289924621582 0.5 6 0.5 L 41 0.5 C 44.03271102905273 0.5 46.5 2.967289924621582 46.5 6 L 46.5 25 C 46.5 28.0327091217041 44.03271102905273 30.5 41 30.5 Z" stroke="none"/>
      <path d="M 6 1 C 3.242988586425781 1 1 3.242990493774414 1 6 L 1 25 C 1 27.75700950622559 3.242988586425781 30 6 30 L 41 30 C 43.75701141357422 30 46 27.75700950622559 46 25 L 46 6 C 46 3.242990493774414 43.75701141357422 1 41 1 L 6 1 M 6 0 L 41 0 C 44.3137092590332 0 47 2.686290740966797 47 6 L 47 25 C 47 28.3137092590332 44.3137092590332 31 41 31 L 6 31 C 2.686290740966797 31 0 28.3137092590332 0 25 L 0 6 C 0 2.686290740966797 2.686290740966797 0 6 0 Z" stroke="none" fill="#707070"/>
    </g>
    <g id="Trazado_817582" data-name="Trazado 817582" transform="translate(1251 7291)" fill="#2977d8">
      <path d="M 41 30.5 L 6 30.5 C 2.967289924621582 30.5 0.5 28.0327091217041 0.5 25 L 0.5 6 C 0.5 2.967289924621582 2.967289924621582 0.5 6 0.5 L 41 0.5 C 44.03271102905273 0.5 46.5 2.967289924621582 46.5 6 L 46.5 25 C 46.5 28.0327091217041 44.03271102905273 30.5 41 30.5 Z" stroke="none"/>
      <path d="M 6 1 C 3.242988586425781 1 1 3.242990493774414 1 6 L 1 25 C 1 27.75700950622559 3.242988586425781 30 6 30 L 41 30 C 43.75701141357422 30 46 27.75700950622559 46 25 L 46 6 C 46 3.242990493774414 43.75701141357422 1 41 1 L 6 1 M 6 0 L 41 0 C 44.3137092590332 0 47 2.686290740966797 47 6 L 47 25 C 47 28.3137092590332 44.3137092590332 31 41 31 L 6 31 C 2.686290740966797 31 0 28.3137092590332 0 25 L 0 6 C 0 2.686290740966797 2.686290740966797 0 6 0 Z" stroke="none" fill="#707070"/>
    </g>
    <path id="Trazado_817598" data-name="Trazado 817598" d="M11.582,0H9.3L3.887-6.406a3.9,3.9,0,0,1-.371-.488H3.477V0H1.836V-14H3.477v6.582h.039A3.861,3.861,0,0,1,3.887-7.9L9.121-14h2.041L5.156-7.285ZM28.525-7.266h-9.18V-8.555h9.18Zm0,4.16h-9.18V-4.395h9.18Zm17.021-.859a4.082,4.082,0,0,1-.356,1.724A3.806,3.806,0,0,1,44.185-.913a4.643,4.643,0,0,1-1.558.854,6.3,6.3,0,0,1-2,.3,5.817,5.817,0,0,1-3.184-.762V-2.236a5.1,5.1,0,0,0,3.242,1.113,4.406,4.406,0,0,0,1.323-.186,2.967,2.967,0,0,0,1.016-.537,2.386,2.386,0,0,0,.654-.85,2.653,2.653,0,0,0,.229-1.123q0-2.744-3.906-2.744H38.838V-7.92h1.1Q43.4-7.92,43.4-10.5q0-2.383-2.637-2.383a4.49,4.49,0,0,0-2.783,1v-1.553a6.085,6.085,0,0,1,3.184-.8,4.892,4.892,0,0,1,1.592.244,3.647,3.647,0,0,1,1.221.684,3.029,3.029,0,0,1,.786,1.055,3.255,3.255,0,0,1,.278,1.357,3.418,3.418,0,0,1-2.793,3.555V-7.3a4.418,4.418,0,0,1,1.318.347,3.518,3.518,0,0,1,1.045.7A3.113,3.113,0,0,1,45.3-5.249,3.227,3.227,0,0,1,45.547-3.965Z" transform="translate(1230 7525)" fill="#12263f"/>
  </g>
</svg>
