<svg xmlns="http://www.w3.org/2000/svg" width="610" height="434" viewBox="0 0 610 434">
  <g id="Grupo_1070772" data-name="Grupo 1070772" transform="translate(-180 -7201)">
    <path id="Trazado_817558" data-name="Trazado 817558" d="M0,0H610V434H0Z" transform="translate(180 7201)" fill="#f3f9ff"/>
    <path id="Trazado_817510" data-name="Trazado 817510" d="M-4207-6649.166v320.172h505" transform="translate(4437 13907.666)" fill="none" stroke="#000" stroke-width="2"/>
    <path id="Trazado_817559" data-name="Trazado 817559" d="M7.5,0,15,13H0Z" transform="translate(223 7259)"/>
    <path id="Trazado_817579" data-name="Trazado 817579" d="M7.5,0,15,13H0Z" transform="translate(738 7571) rotate(90)"/>
    <g id="Trazado_817574" data-name="Trazado 817574" transform="translate(285 7472)" fill="#c9e8e0">
      <path d="M 41 30.5 L 6 30.5 C 2.967289924621582 30.5 0.5 28.0327091217041 0.5 25 L 0.5 6 C 0.5 2.967289924621582 2.967289924621582 0.5 6 0.5 L 41 0.5 C 44.03271102905273 0.5 46.5 2.967289924621582 46.5 6 L 46.5 25 C 46.5 28.0327091217041 44.03271102905273 30.5 41 30.5 Z" stroke="none"/>
      <path d="M 6 1 C 3.242988586425781 1 1 3.242990493774414 1 6 L 1 25 C 1 27.75700950622559 3.242988586425781 30 6 30 L 41 30 C 43.75701141357422 30 46 27.75700950622559 46 25 L 46 6 C 46 3.242990493774414 43.75701141357422 1 41 1 L 6 1 M 6 0 L 41 0 C 44.3137092590332 0 47 2.686290740966797 47 6 L 47 25 C 47 28.3137092590332 44.3137092590332 31 41 31 L 6 31 C 2.686290740966797 31 0 28.3137092590332 0 25 L 0 6 C 0 2.686290740966797 2.686290740966797 0 6 0 Z" stroke="none" fill="#707070"/>
    </g>
    <g id="Trazado_817578" data-name="Trazado 817578" transform="translate(318 7510)" fill="#2efec7">
      <path d="M 41 30.5 L 6 30.5 C 2.967289924621582 30.5 0.5 28.0327091217041 0.5 25 L 0.5 6 C 0.5 2.967289924621582 2.967289924621582 0.5 6 0.5 L 41 0.5 C 44.03271102905273 0.5 46.5 2.967289924621582 46.5 6 L 46.5 25 C 46.5 28.0327091217041 44.03271102905273 30.5 41 30.5 Z" stroke="none"/>
      <path d="M 6 1 C 3.242988586425781 1 1 3.242990493774414 1 6 L 1 25 C 1 27.75700950622559 3.242988586425781 30 6 30 L 41 30 C 43.75701141357422 30 46 27.75700950622559 46 25 L 46 6 C 46 3.242990493774414 43.75701141357422 1 41 1 L 6 1 M 6 0 L 41 0 C 44.3137092590332 0 47 2.686290740966797 47 6 L 47 25 C 47 28.3137092590332 44.3137092590332 31 41 31 L 6 31 C 2.686290740966797 31 0 28.3137092590332 0 25 L 0 6 C 0 2.686290740966797 2.686290740966797 0 6 0 Z" stroke="none" fill="#707070"/>
    </g>
    <g id="Trazado_817575" data-name="Trazado 817575" transform="translate(356 7472)" fill="#c9e8e0">
      <path d="M 41 30.5 L 6 30.5 C 2.967289924621582 30.5 0.5 28.0327091217041 0.5 25 L 0.5 6 C 0.5 2.967289924621582 2.967289924621582 0.5 6 0.5 L 41 0.5 C 44.03271102905273 0.5 46.5 2.967289924621582 46.5 6 L 46.5 25 C 46.5 28.0327091217041 44.03271102905273 30.5 41 30.5 Z" stroke="none"/>
      <path d="M 6 1 C 3.242988586425781 1 1 3.242990493774414 1 6 L 1 25 C 1 27.75700950622559 3.242988586425781 30 6 30 L 41 30 C 43.75701141357422 30 46 27.75700950622559 46 25 L 46 6 C 46 3.242990493774414 43.75701141357422 1 41 1 L 6 1 M 6 0 L 41 0 C 44.3137092590332 0 47 2.686290740966797 47 6 L 47 25 C 47 28.3137092590332 44.3137092590332 31 41 31 L 6 31 C 2.686290740966797 31 0 28.3137092590332 0 25 L 0 6 C 0 2.686290740966797 2.686290740966797 0 6 0 Z" stroke="none" fill="#707070"/>
    </g>
    <g id="Trazado_817572" data-name="Trazado 817572" transform="translate(323 7435)" fill="#c9e8e0">
      <path d="M 41 30.5 L 6 30.5 C 2.967289924621582 30.5 0.5 28.0327091217041 0.5 25 L 0.5 6 C 0.5 2.967289924621582 2.967289924621582 0.5 6 0.5 L 41 0.5 C 44.03271102905273 0.5 46.5 2.967289924621582 46.5 6 L 46.5 25 C 46.5 28.0327091217041 44.03271102905273 30.5 41 30.5 Z" stroke="none"/>
      <path d="M 6 1 C 3.242988586425781 1 1 3.242990493774414 1 6 L 1 25 C 1 27.75700950622559 3.242988586425781 30 6 30 L 41 30 C 43.75701141357422 30 46 27.75700950622559 46 25 L 46 6 C 46 3.242990493774414 43.75701141357422 1 41 1 L 6 1 M 6 0 L 41 0 C 44.3137092590332 0 47 2.686290740966797 47 6 L 47 25 C 47 28.3137092590332 44.3137092590332 31 41 31 L 6 31 C 2.686290740966797 31 0 28.3137092590332 0 25 L 0 6 C 0 2.686290740966797 2.686290740966797 0 6 0 Z" stroke="none" fill="#707070"/>
    </g>
    <g id="Trazado_817576" data-name="Trazado 817576" transform="translate(403 7503)" fill="#cde4de">
      <path d="M 41 30.5 L 6 30.5 C 2.967289924621582 30.5 0.5 28.0327091217041 0.5 25 L 0.5 6 C 0.5 2.967289924621582 2.967289924621582 0.5 6 0.5 L 41 0.5 C 44.03271102905273 0.5 46.5 2.967289924621582 46.5 6 L 46.5 25 C 46.5 28.0327091217041 44.03271102905273 30.5 41 30.5 Z" stroke="none"/>
      <path d="M 6 1 C 3.242988586425781 1 1 3.242990493774414 1 6 L 1 25 C 1 27.75700950622559 3.242988586425781 30 6 30 L 41 30 C 43.75701141357422 30 46 27.75700950622559 46 25 L 46 6 C 46 3.242990493774414 43.75701141357422 1 41 1 L 6 1 M 6 0 L 41 0 C 44.3137092590332 0 47 2.686290740966797 47 6 L 47 25 C 47 28.3137092590332 44.3137092590332 31 41 31 L 6 31 C 2.686290740966797 31 0 28.3137092590332 0 25 L 0 6 C 0 2.686290740966797 2.686290740966797 0 6 0 Z" stroke="none" fill="#707070"/>
    </g>
    <g id="Trazado_817573" data-name="Trazado 817573" transform="translate(416 7450)" fill="#c9e8e0">
      <path d="M 41 30.5 L 6 30.5 C 2.967289924621582 30.5 0.5 28.0327091217041 0.5 25 L 0.5 6 C 0.5 2.967289924621582 2.967289924621582 0.5 6 0.5 L 41 0.5 C 44.03271102905273 0.5 46.5 2.967289924621582 46.5 6 L 46.5 25 C 46.5 28.0327091217041 44.03271102905273 30.5 41 30.5 Z" stroke="none"/>
      <path d="M 6 1 C 3.242988586425781 1 1 3.242990493774414 1 6 L 1 25 C 1 27.75700950622559 3.242988586425781 30 6 30 L 41 30 C 43.75701141357422 30 46 27.75700950622559 46 25 L 46 6 C 46 3.242990493774414 43.75701141357422 1 41 1 L 6 1 M 6 0 L 41 0 C 44.3137092590332 0 47 2.686290740966797 47 6 L 47 25 C 47 28.3137092590332 44.3137092590332 31 41 31 L 6 31 C 2.686290740966797 31 0 28.3137092590332 0 25 L 0 6 C 0 2.686290740966797 2.686290740966797 0 6 0 Z" stroke="none" fill="#707070"/>
    </g>
    <g id="Trazado_817571" data-name="Trazado 817571" transform="translate(386 7407)" fill="#c9e8e0">
      <path d="M 41 30.5 L 6 30.5 C 2.967289924621582 30.5 0.5 28.0327091217041 0.5 25 L 0.5 6 C 0.5 2.967289924621582 2.967289924621582 0.5 6 0.5 L 41 0.5 C 44.03271102905273 0.5 46.5 2.967289924621582 46.5 6 L 46.5 25 C 46.5 28.0327091217041 44.03271102905273 30.5 41 30.5 Z" stroke="none"/>
      <path d="M 6 1 C 3.242988586425781 1 1 3.242990493774414 1 6 L 1 25 C 1 27.75700950622559 3.242988586425781 30 6 30 L 41 30 C 43.75701141357422 30 46 27.75700950622559 46 25 L 46 6 C 46 3.242990493774414 43.75701141357422 1 41 1 L 6 1 M 6 0 L 41 0 C 44.3137092590332 0 47 2.686290740966797 47 6 L 47 25 C 47 28.3137092590332 44.3137092590332 31 41 31 L 6 31 C 2.686290740966797 31 0 28.3137092590332 0 25 L 0 6 C 0 2.686290740966797 2.686290740966797 0 6 0 Z" stroke="none" fill="#707070"/>
    </g>
    <g id="Trazado_817563" data-name="Trazado 817563" transform="translate(495 7345)" fill="#cde4de">
      <path d="M 41 30.5 L 6 30.5 C 2.967289924621582 30.5 0.5 28.0327091217041 0.5 25 L 0.5 6 C 0.5 2.967289924621582 2.967289924621582 0.5 6 0.5 L 41 0.5 C 44.03271102905273 0.5 46.5 2.967289924621582 46.5 6 L 46.5 25 C 46.5 28.0327091217041 44.03271102905273 30.5 41 30.5 Z" stroke="none"/>
      <path d="M 6 1 C 3.242988586425781 1 1 3.242990493774414 1 6 L 1 25 C 1 27.75700950622559 3.242988586425781 30 6 30 L 41 30 C 43.75701141357422 30 46 27.75700950622559 46 25 L 46 6 C 46 3.242990493774414 43.75701141357422 1 41 1 L 6 1 M 6 0 L 41 0 C 44.3137092590332 0 47 2.686290740966797 47 6 L 47 25 C 47 28.3137092590332 44.3137092590332 31 41 31 L 6 31 C 2.686290740966797 31 0 28.3137092590332 0 25 L 0 6 C 0 2.686290740966797 2.686290740966797 0 6 0 Z" stroke="none" fill="#707070"/>
    </g>
    <g id="Trazado_817570" data-name="Trazado 817570" transform="translate(546 7381)" fill="#cde4de">
      <path d="M 41 30.5 L 6 30.5 C 2.967289924621582 30.5 0.5 28.0327091217041 0.5 25 L 0.5 6 C 0.5 2.967289924621582 2.967289924621582 0.5 6 0.5 L 41 0.5 C 44.03271102905273 0.5 46.5 2.967289924621582 46.5 6 L 46.5 25 C 46.5 28.0327091217041 44.03271102905273 30.5 41 30.5 Z" stroke="none"/>
      <path d="M 6 1 C 3.242988586425781 1 1 3.242990493774414 1 6 L 1 25 C 1 27.75700950622559 3.242988586425781 30 6 30 L 41 30 C 43.75701141357422 30 46 27.75700950622559 46 25 L 46 6 C 46 3.242990493774414 43.75701141357422 1 41 1 L 6 1 M 6 0 L 41 0 C 44.3137092590332 0 47 2.686290740966797 47 6 L 47 25 C 47 28.3137092590332 44.3137092590332 31 41 31 L 6 31 C 2.686290740966797 31 0 28.3137092590332 0 25 L 0 6 C 0 2.686290740966797 2.686290740966797 0 6 0 Z" stroke="none" fill="#707070"/>
    </g>
    <g id="Trazado_817564" data-name="Trazado 817564" transform="translate(558 7342)" fill="#cde4de">
      <path d="M 41 30.5 L 6 30.5 C 2.967289924621582 30.5 0.5 28.0327091217041 0.5 25 L 0.5 6 C 0.5 2.967289924621582 2.967289924621582 0.5 6 0.5 L 41 0.5 C 44.03271102905273 0.5 46.5 2.967289924621582 46.5 6 L 46.5 25 C 46.5 28.0327091217041 44.03271102905273 30.5 41 30.5 Z" stroke="none"/>
      <path d="M 6 1 C 3.242988586425781 1 1 3.242990493774414 1 6 L 1 25 C 1 27.75700950622559 3.242988586425781 30 6 30 L 41 30 C 43.75701141357422 30 46 27.75700950622559 46 25 L 46 6 C 46 3.242990493774414 43.75701141357422 1 41 1 L 6 1 M 6 0 L 41 0 C 44.3137092590332 0 47 2.686290740966797 47 6 L 47 25 C 47 28.3137092590332 44.3137092590332 31 41 31 L 6 31 C 2.686290740966797 31 0 28.3137092590332 0 25 L 0 6 C 0 2.686290740966797 2.686290740966797 0 6 0 Z" stroke="none" fill="#707070"/>
    </g>
    <g id="Trazado_817560" data-name="Trazado 817560" transform="translate(510 7301)" fill="#cde4de">
      <path d="M 41 30.5 L 6 30.5 C 2.967289924621582 30.5 0.5 28.0327091217041 0.5 25 L 0.5 6 C 0.5 2.967289924621582 2.967289924621582 0.5 6 0.5 L 41 0.5 C 44.03271102905273 0.5 46.5 2.967289924621582 46.5 6 L 46.5 25 C 46.5 28.0327091217041 44.03271102905273 30.5 41 30.5 Z" stroke="none"/>
      <path d="M 6 1 C 3.242988586425781 1 1 3.242990493774414 1 6 L 1 25 C 1 27.75700950622559 3.242988586425781 30 6 30 L 41 30 C 43.75701141357422 30 46 27.75700950622559 46 25 L 46 6 C 46 3.242990493774414 43.75701141357422 1 41 1 L 6 1 M 6 0 L 41 0 C 44.3137092590332 0 47 2.686290740966797 47 6 L 47 25 C 47 28.3137092590332 44.3137092590332 31 41 31 L 6 31 C 2.686290740966797 31 0 28.3137092590332 0 25 L 0 6 C 0 2.686290740966797 2.686290740966797 0 6 0 Z" stroke="none" fill="#707070"/>
    </g>
    <g id="Trazado_817568" data-name="Trazado 817568" transform="translate(617 7368)" fill="#cde4de">
      <path d="M 41 30.5 L 6 30.5 C 2.967289924621582 30.5 0.5 28.0327091217041 0.5 25 L 0.5 6 C 0.5 2.967289924621582 2.967289924621582 0.5 6 0.5 L 41 0.5 C 44.03271102905273 0.5 46.5 2.967289924621582 46.5 6 L 46.5 25 C 46.5 28.0327091217041 44.03271102905273 30.5 41 30.5 Z" stroke="none"/>
      <path d="M 6 1 C 3.242988586425781 1 1 3.242990493774414 1 6 L 1 25 C 1 27.75700950622559 3.242988586425781 30 6 30 L 41 30 C 43.75701141357422 30 46 27.75700950622559 46 25 L 46 6 C 46 3.242990493774414 43.75701141357422 1 41 1 L 6 1 M 6 0 L 41 0 C 44.3137092590332 0 47 2.686290740966797 47 6 L 47 25 C 47 28.3137092590332 44.3137092590332 31 41 31 L 6 31 C 2.686290740966797 31 0 28.3137092590332 0 25 L 0 6 C 0 2.686290740966797 2.686290740966797 0 6 0 Z" stroke="none" fill="#707070"/>
    </g>
    <g id="Trazado_817569" data-name="Trazado 817569" transform="translate(638 7327)" fill="#cde4de">
      <path d="M 41 30.5 L 6 30.5 C 2.967289924621582 30.5 0.5 28.0327091217041 0.5 25 L 0.5 6 C 0.5 2.967289924621582 2.967289924621582 0.5 6 0.5 L 41 0.5 C 44.03271102905273 0.5 46.5 2.967289924621582 46.5 6 L 46.5 25 C 46.5 28.0327091217041 44.03271102905273 30.5 41 30.5 Z" stroke="none"/>
      <path d="M 6 1 C 3.242988586425781 1 1 3.242990493774414 1 6 L 1 25 C 1 27.75700950622559 3.242988586425781 30 6 30 L 41 30 C 43.75701141357422 30 46 27.75700950622559 46 25 L 46 6 C 46 3.242990493774414 43.75701141357422 1 41 1 L 6 1 M 6 0 L 41 0 C 44.3137092590332 0 47 2.686290740966797 47 6 L 47 25 C 47 28.3137092590332 44.3137092590332 31 41 31 L 6 31 C 2.686290740966797 31 0 28.3137092590332 0 25 L 0 6 C 0 2.686290740966797 2.686290740966797 0 6 0 Z" stroke="none" fill="#707070"/>
    </g>
    <g id="Trazado_817565" data-name="Trazado 817565" transform="translate(580 7306)" fill="#cde4de">
      <path d="M 41 30.5 L 6 30.5 C 2.967289924621582 30.5 0.5 28.0327091217041 0.5 25 L 0.5 6 C 0.5 2.967289924621582 2.967289924621582 0.5 6 0.5 L 41 0.5 C 44.03271102905273 0.5 46.5 2.967289924621582 46.5 6 L 46.5 25 C 46.5 28.0327091217041 44.03271102905273 30.5 41 30.5 Z" stroke="none"/>
      <path d="M 6 1 C 3.242988586425781 1 1 3.242990493774414 1 6 L 1 25 C 1 27.75700950622559 3.242988586425781 30 6 30 L 41 30 C 43.75701141357422 30 46 27.75700950622559 46 25 L 46 6 C 46 3.242990493774414 43.75701141357422 1 41 1 L 6 1 M 6 0 L 41 0 C 44.3137092590332 0 47 2.686290740966797 47 6 L 47 25 C 47 28.3137092590332 44.3137092590332 31 41 31 L 6 31 C 2.686290740966797 31 0 28.3137092590332 0 25 L 0 6 C 0 2.686290740966797 2.686290740966797 0 6 0 Z" stroke="none" fill="#707070"/>
    </g>
    <g id="Trazado_817566" data-name="Trazado 817566" transform="translate(265 7337.5)" fill="#cde4de">
      <path d="M 41 30.5 L 6 30.5 C 2.967289924621582 30.5 0.5 28.0327091217041 0.5 25 L 0.5 6 C 0.5 2.967289924621582 2.967289924621582 0.5 6 0.5 L 41 0.5 C 44.03271102905273 0.5 46.5 2.967289924621582 46.5 6 L 46.5 25 C 46.5 28.0327091217041 44.03271102905273 30.5 41 30.5 Z" stroke="none"/>
      <path d="M 6 1 C 3.242988586425781 1 1 3.242990493774414 1 6 L 1 25 C 1 27.75700950622559 3.242988586425781 30 6 30 L 41 30 C 43.75701141357422 30 46 27.75700950622559 46 25 L 46 6 C 46 3.242990493774414 43.75701141357422 1 41 1 L 6 1 M 6 0 L 41 0 C 44.3137092590332 0 47 2.686290740966797 47 6 L 47 25 C 47 28.3137092590332 44.3137092590332 31 41 31 L 6 31 C 2.686290740966797 31 0 28.3137092590332 0 25 L 0 6 C 0 2.686290740966797 2.686290740966797 0 6 0 Z" stroke="none" fill="#707070"/>
    </g>
    <g id="Trazado_817561" data-name="Trazado 817561" transform="translate(312 7317)" fill="#ff6148">
      <path d="M 41 30.5 L 6 30.5 C 2.967289924621582 30.5 0.5 28.0327091217041 0.5 25 L 0.5 6 C 0.5 2.967289924621582 2.967289924621582 0.5 6 0.5 L 41 0.5 C 44.03271102905273 0.5 46.5 2.967289924621582 46.5 6 L 46.5 25 C 46.5 28.0327091217041 44.03271102905273 30.5 41 30.5 Z" stroke="none"/>
      <path d="M 6 1 C 3.242988586425781 1 1 3.242990493774414 1 6 L 1 25 C 1 27.75700950622559 3.242988586425781 30 6 30 L 41 30 C 43.75701141357422 30 46 27.75700950622559 46 25 L 46 6 C 46 3.242990493774414 43.75701141357422 1 41 1 L 6 1 M 6 0 L 41 0 C 44.3137092590332 0 47 2.686290740966797 47 6 L 47 25 C 47 28.3137092590332 44.3137092590332 31 41 31 L 6 31 C 2.686290740966797 31 0 28.3137092590332 0 25 L 0 6 C 0 2.686290740966797 2.686290740966797 0 6 0 Z" stroke="none" fill="#707070"/>
    </g>
    <g id="Trazado_817562" data-name="Trazado 817562" transform="translate(533 7257)" fill="#cde4de">
      <path d="M 41 30.5 L 6 30.5 C 2.967289924621582 30.5 0.5 28.0327091217041 0.5 25 L 0.5 6 C 0.5 2.967289924621582 2.967289924621582 0.5 6 0.5 L 41 0.5 C 44.03271102905273 0.5 46.5 2.967289924621582 46.5 6 L 46.5 25 C 46.5 28.0327091217041 44.03271102905273 30.5 41 30.5 Z" stroke="none"/>
      <path d="M 6 1 C 3.242988586425781 1 1 3.242990493774414 1 6 L 1 25 C 1 27.75700950622559 3.242988586425781 30 6 30 L 41 30 C 43.75701141357422 30 46 27.75700950622559 46 25 L 46 6 C 46 3.242990493774414 43.75701141357422 1 41 1 L 6 1 M 6 0 L 41 0 C 44.3137092590332 0 47 2.686290740966797 47 6 L 47 25 C 47 28.3137092590332 44.3137092590332 31 41 31 L 6 31 C 2.686290740966797 31 0 28.3137092590332 0 25 L 0 6 C 0 2.686290740966797 2.686290740966797 0 6 0 Z" stroke="none" fill="#707070"/>
    </g>
    <g id="Trazado_817567" data-name="Trazado 817567" transform="translate(621 7265)" fill="#2977d8">
      <path d="M 41 30.5 L 6 30.5 C 2.967289924621582 30.5 0.5 28.0327091217041 0.5 25 L 0.5 6 C 0.5 2.967289924621582 2.967289924621582 0.5 6 0.5 L 41 0.5 C 44.03271102905273 0.5 46.5 2.967289924621582 46.5 6 L 46.5 25 C 46.5 28.0327091217041 44.03271102905273 30.5 41 30.5 Z" stroke="none"/>
      <path d="M 6 1 C 3.242988586425781 1 1 3.242990493774414 1 6 L 1 25 C 1 27.75700950622559 3.242988586425781 30 6 30 L 41 30 C 43.75701141357422 30 46 27.75700950622559 46 25 L 46 6 C 46 3.242990493774414 43.75701141357422 1 41 1 L 6 1 M 6 0 L 41 0 C 44.3137092590332 0 47 2.686290740966797 47 6 L 47 25 C 47 28.3137092590332 44.3137092590332 31 41 31 L 6 31 C 2.686290740966797 31 0 28.3137092590332 0 25 L 0 6 C 0 2.686290740966797 2.686290740966797 0 6 0 Z" stroke="none" fill="#707070"/>
    </g>
    <path id="Trazado_817577" data-name="Trazado 817577" d="M11.582,0H9.3L3.887-6.406a3.9,3.9,0,0,1-.371-.488H3.477V0H1.836V-14H3.477v6.582h.039A3.861,3.861,0,0,1,3.887-7.9L9.121-14h2.041L5.156-7.285ZM28.525-7.266h-9.18V-8.555h9.18Zm0,4.16h-9.18V-4.395h9.18Zm17.021-.859a4.082,4.082,0,0,1-.356,1.724A3.806,3.806,0,0,1,44.185-.913a4.643,4.643,0,0,1-1.558.854,6.3,6.3,0,0,1-2,.3,5.817,5.817,0,0,1-3.184-.762V-2.236a5.1,5.1,0,0,0,3.242,1.113,4.406,4.406,0,0,0,1.323-.186,2.967,2.967,0,0,0,1.016-.537,2.386,2.386,0,0,0,.654-.85,2.653,2.653,0,0,0,.229-1.123q0-2.744-3.906-2.744H38.838V-7.92h1.1Q43.4-7.92,43.4-10.5q0-2.383-2.637-2.383a4.49,4.49,0,0,0-2.783,1v-1.553a6.085,6.085,0,0,1,3.184-.8,4.892,4.892,0,0,1,1.592.244,3.647,3.647,0,0,1,1.221.684,3.029,3.029,0,0,1,.786,1.055,3.255,3.255,0,0,1,.278,1.357,3.418,3.418,0,0,1-2.793,3.555V-7.3a4.418,4.418,0,0,1,1.318.347,3.518,3.518,0,0,1,1.045.7A3.113,3.113,0,0,1,45.3-5.249,3.227,3.227,0,0,1,45.547-3.965Z" transform="translate(600 7525)" fill="#12263f"/>
    <path id="Trazado_817511" data-name="Trazado 817511" d="M-4122-4291.5c3.5-2.867-33.961-24.984-21.629-58.66s1.7-42.137,21.629-56.762,43.219-26.953,63.867-32.211,44.449-7.25,69.664,0,47.824,8.453,60.824,15.836,25.594,13.625,27.625,29.078,12.6,43.668,8.02,67.777-2.109,28.738-20,49.2-34.52,34.578-53.277,36.82-72.016-.4-82.25-4.867-42.367-12.133-54.473-22.289S-4122-4291.5-4122-4291.5Z" transform="translate(4597 11675)" fill="none" stroke="#707070" stroke-width="1" stroke-dasharray="6"/>
    <path id="Trazado_817512" data-name="Trazado 817512" d="M-4134.138-4371.082c1.741-1.369-16.877-11.934-10.749-28.019s.845-20.127,10.749-27.112,21.479-12.874,31.74-15.386,22.09-3.463,34.621,0,23.766,4.038,30.227,7.564,12.719,6.508,13.729,13.889,6.261,20.858,3.986,32.374-1.048,13.727-9.94,23.5-17.155,16.516-26.477,17.587-35.789-.19-40.875-2.325-21.055-5.8-27.07-10.646A48.755,48.755,0,0,1-4134.138-4371.082Z" transform="translate(4389.271 11739.854)" fill="none" stroke="#707070" stroke-width="1" stroke-dasharray="6"/>
    <path id="Trazado_817513" data-name="Trazado 817513" d="M-4126.279-4323.883c2.883-2.257-27.938-19.673-17.793-46.19s1.4-33.182,17.793-44.7,35.555-21.225,52.541-25.365,36.568-5.708,57.31,0,39.342,6.658,50.038,12.471,21.055,10.728,22.726,22.9,10.364,34.387,6.6,53.371-1.735,22.631-16.455,38.742-28.4,27.229-43.828,28.995-59.245-.313-67.664-3.833-34.854-9.555-44.812-17.552A80.443,80.443,0,0,1-4126.279-4323.883Z" transform="translate(4411.13 11840.354)" fill="none" stroke="#707070" stroke-width="1" stroke-dasharray="6"/>
  </g>
</svg>
