<svg xmlns="http://www.w3.org/2000/svg" xmlns:xlink="http://www.w3.org/1999/xlink" width="56.972" height="56.309" viewBox="0 0 56.972 56.309">
  <defs>
    <clipPath id="clip-path">
      <rect id="Rectángulo_374576" data-name="Rectángulo 374576" width="56.972" height="56.309" fill="none"/>
    </clipPath>
  </defs>
  <g id="Grupo_1070568" data-name="Grupo 1070568" transform="translate(0 0)">
    <g id="Grupo_1070567" data-name="Grupo 1070567" transform="translate(0 0)" clip-path="url(#clip-path)">
      <path id="Trazado_817412" data-name="Trazado 817412" d="M45.115,29.3A1.227,1.227,0,0,0,43.9,30.5,13.016,13.016,0,0,1,30.852,43.4a1.2,1.2,0,1,0,0,2.4A15.408,15.408,0,0,0,46.327,30.5a1.226,1.226,0,0,0-1.212-1.2" transform="translate(-2.324 -2.298)"/>
      <path id="Trazado_817413" data-name="Trazado 817413" d="M30.85,15.2A1.227,1.227,0,0,0,29.638,14,15.409,15.409,0,0,0,14.163,29.3a1.212,1.212,0,0,0,2.424,0A13.016,13.016,0,0,1,29.638,16.4a1.227,1.227,0,0,0,1.212-1.2" transform="translate(-1.111 -1.098)"/>
      <path id="Trazado_817414" data-name="Trazado 817414" d="M55.843,23.5H49.41a21.376,21.376,0,0,0-2.8-6.543l4.567-4.516a1.158,1.158,0,0,0,0-1.659L46.148,5.806a1.191,1.191,0,0,0-1.678,0L39.9,10.322a21.915,21.915,0,0,0-6.619-2.765V1.2A1.227,1.227,0,0,0,32.069,0H24.984a1.227,1.227,0,0,0-1.211,1.2V7.557a21.92,21.92,0,0,0-6.62,2.765L12.585,5.806a1.19,1.19,0,0,0-1.677,0L5.873,10.783a1.158,1.158,0,0,0,0,1.659l4.568,4.516a21.4,21.4,0,0,0-2.8,6.543H1.212A1.227,1.227,0,0,0,0,24.7v7a1.227,1.227,0,0,0,1.212,1.2H7.645a23.712,23.712,0,0,0,2.7,6.543L5.78,43.96a1.158,1.158,0,0,0,0,1.659L10.815,50.6a1.19,1.19,0,0,0,1.677,0l4.568-4.516a19.6,19.6,0,0,0,6.619,2.673v6.359a1.227,1.227,0,0,0,1.212,1.2h7.085a1.227,1.227,0,0,0,1.213-1.2V48.752a24.3,24.3,0,0,0,6.619-2.673L44.376,50.6a1.191,1.191,0,0,0,1.678,0l5.034-4.977a1.158,1.158,0,0,0,0-1.659L46.52,39.444a21.379,21.379,0,0,0,2.8-6.543H55.75a1.227,1.227,0,0,0,1.212-1.2v-7a1.094,1.094,0,0,0-1.119-1.2m-1.212,7H48.385a1.268,1.268,0,0,0-1.212,1.014A17.81,17.81,0,0,1,44.1,38.891a1.112,1.112,0,0,0,.093,1.475L48.571,44.7l-3.356,3.318-4.381-4.331a1.143,1.143,0,0,0-1.492-.092,18.245,18.245,0,0,1-7.458,3.041,1.2,1.2,0,0,0-1.025,1.2v6.175H26.2V47.83a1.261,1.261,0,0,0-1.026-1.2,18.245,18.245,0,0,1-7.458-3.041,1.142,1.142,0,0,0-1.491.092L11.84,48.015,8.484,44.7l4.381-4.331a1.111,1.111,0,0,0,.093-1.475,17.809,17.809,0,0,1-3.076-7.373A1.208,1.208,0,0,0,8.67,30.5H2.424V25.9H8.67a1.268,1.268,0,0,0,1.212-1.014,17.809,17.809,0,0,1,3.076-7.373,1.111,1.111,0,0,0-.093-1.475L8.484,11.7,11.84,8.386l4.382,4.331a1.142,1.142,0,0,0,1.491.092,18.245,18.245,0,0,1,7.458-3.041,1.2,1.2,0,0,0,1.026-1.2V2.4h4.661V8.571a1.26,1.26,0,0,0,1.025,1.2,18.245,18.245,0,0,1,7.458,3.041,1.143,1.143,0,0,0,1.492-.092l4.381-4.331L48.571,11.7l-4.382,4.331A1.112,1.112,0,0,0,44.1,17.51a17.81,17.81,0,0,1,3.077,7.373A1.208,1.208,0,0,0,48.385,25.9h6.246Z" transform="translate(0 0)"/>
      <path id="Trazado_817415" data-name="Trazado 817415" d="M37.437,36.7V33.2A7.08,7.08,0,0,0,33.8,27.025,4.417,4.417,0,0,0,35.107,23.8a4.755,4.755,0,0,0-9.509,0,4.416,4.416,0,0,0,1.3,3.226A6.9,6.9,0,0,0,23.267,33.2v3.5a1.228,1.228,0,0,0,1.212,1.2h11.84a1.149,1.149,0,0,0,1.119-1.2M28.021,23.8a2.331,2.331,0,1,1,2.331,2.3,2.238,2.238,0,0,1-2.331-2.3m7.085,11.8H25.6v-2.3a4.755,4.755,0,0,1,9.509,0Z" transform="translate(-1.824 -1.498)"/>
    </g>
  </g>
</svg>
