<svg xmlns="http://www.w3.org/2000/svg" xmlns:xlink="http://www.w3.org/1999/xlink" width="105" height="102" viewBox="0 0 105 102">
  <defs>
    <clipPath id="clip-path">
      <rect id="Rect치ngulo_374590" data-name="Rect치ngulo 374590" width="60.147" height="74.345" fill="none"/>
    </clipPath>
  </defs>
  <g id="Grupo_1070766" data-name="Grupo 1070766" transform="translate(-328 -2031)">
    <g id="Grupo_114061" data-name="Grupo 114061" transform="translate(-740 1433.35)">
      <g id="Grupo_114051" data-name="Grupo 114051" transform="translate(1068 598.016)">
        <g id="Grupo_110668" data-name="Grupo 110668">
          <rect id="Rect치ngulo_37257" data-name="Rect치ngulo 37257" width="105" height="102" rx="12" transform="translate(0 -0.366)" fill="#ff6148"/>
        </g>
      </g>
    </g>
    <g id="Grupo_1070610" data-name="Grupo 1070610" transform="translate(350.426 2044.328)">
      <g id="Grupo_1070609" data-name="Grupo 1070609" clip-path="url(#clip-path)">
        <path id="Trazado_817431" data-name="Trazado 817431" d="M17.256,11.192a1.282,1.282,0,1,0-1.283,1.282,1.284,1.284,0,0,0,1.283-1.282" transform="translate(-4.657 -3.141)" fill="#de542f"/>
        <path id="Trazado_817432" data-name="Trazado 817432" d="M27.445,3.682a1.282,1.282,0,1,0-1.283,1.282,1.284,1.284,0,0,0,1.283-1.282" transform="translate(-7.886 -0.76)" fill="#de542f"/>
        <path id="Trazado_817433" data-name="Trazado 817433" d="M66.363,64.338a1.282,1.282,0,1,0-1.283-1.283,1.284,1.284,0,0,0,1.283,1.283" transform="translate(-20.628 -19.58)" fill="#7cc3b5"/>
        <path id="Trazado_817434" data-name="Trazado 817434" d="M70.191,14.393a1.282,1.282,0,1,0-1.283-1.283,1.284,1.284,0,0,0,1.283,1.283" transform="translate(-21.841 -3.749)" fill="#de542f"/>
        <path id="Trazado_817435" data-name="Trazado 817435" d="M57.993,87.406a1.282,1.282,0,1,0,1.282,1.282,1.284,1.284,0,0,0-1.282-1.282" transform="translate(-17.975 -27.705)" fill="#7cc3b5"/>
        <path id="Trazado_817436" data-name="Trazado 817436" d="M17.256,25.6a1.282,1.282,0,1,0-1.283,1.283A1.284,1.284,0,0,0,17.256,25.6" transform="translate(-4.657 -7.707)" fill="#de542f"/>
        <path id="Trazado_817437" data-name="Trazado 817437" d="M19.062,68.945a1.282,1.282,0,1,0,1.283,1.283,1.284,1.284,0,0,0-1.283-1.283" transform="translate(-5.635 -21.853)" fill="#7cc3b5"/>
        <path id="Trazado_817438" data-name="Trazado 817438" d="M30.112,87.114a1.283,1.283,0,1,0,1.283-1.282,1.284,1.284,0,0,0-1.283,1.282" transform="translate(-9.544 -27.206)" fill="#7cc3b5"/>
        <path id="Trazado_817439" data-name="Trazado 817439" d="M50.486,5.722A1.282,1.282,0,1,0,49.2,7a1.284,1.284,0,0,0,1.282-1.282" transform="translate(-15.189 -1.407)" fill="#de542f"/>
        <path id="Trazado_817440" data-name="Trazado 817440" d="M29.213,53.122A1.282,1.282,0,1,0,27.93,51.84a1.283,1.283,0,0,0,1.283,1.282" transform="translate(-8.853 -16.025)" fill="#7cc3b5"/>
        <path id="Trazado_817441" data-name="Trazado 817441" d="M51.839,34.333a6.531,6.531,0,0,0-6.99-.369l.008,20.279a2.914,2.914,0,0,1,1.963,1.981c1.3.669,6.54,2.974,10.446-1.1a2.935,2.935,0,0,1-.163-.515c-6.073-1.854-6.929-5.918-7.005-7.647a2.919,2.919,0,1,1,1.626.012c.053,1.284.709,4.36,5.507,5.957a2.916,2.916,0,1,1,3.46,3.858,10.723,10.723,0,0,1,.479,6.715A10.611,10.611,0,0,1,56.4,69.54a2.91,2.91,0,1,1-2.165-.978,2.937,2.937,0,0,1,.518.052,9.487,9.487,0,0,0,4.836-5.533,9.446,9.446,0,0,0-.736-6.4,2.909,2.909,0,0,1-.535-.284,8.871,8.871,0,0,1-6.492,2.7A13.267,13.267,0,0,1,46.769,58a2.917,2.917,0,0,1-1.909,1.817l.008,19.838a6.612,6.612,0,0,0,11.95-.478.823.823,0,0,1,.933-.478,6.613,6.613,0,0,0,8.079-6.464,6.576,6.576,0,0,0-.616-2.777.819.819,0,0,1,.706-1.163A6.623,6.623,0,0,0,68.184,55.57a.82.82,0,0,1-.3-1.3,6.612,6.612,0,0,0-6.514-10.82.82.82,0,0,1-.979-.57,6.623,6.623,0,0,0-5.434-4.719.82.82,0,0,1-.662-.547,6.618,6.618,0,0,0-2.3-3.16.8.8,0,0,1-.164-.122" transform="translate(-14.216 -10.499)" fill="#e6c9b1"/>
        <path id="Trazado_817442" data-name="Trazado 817442" d="M5.582,29.118A1.282,1.282,0,1,0,4.3,30.4a1.283,1.283,0,0,0,1.282-1.283" transform="translate(-0.956 -8.823)" fill="#de542f"/>
        <path id="Trazado_817443" data-name="Trazado 817443" d="M27.673,57.257a8.876,8.876,0,0,0-10.6,1.292,2.957,2.957,0,0,1,.033.331,2.905,2.905,0,0,1-.516,1.652c2.3,1.063,5.124,3.348,5.367,7.041a2.889,2.889,0,0,1,.652-.079,2.921,2.921,0,1,1-2.921,2.921,2.89,2.89,0,0,1,.635-1.8c.385-4.682-4.207-6.572-5.3-6.954a2.885,2.885,0,0,1-.834.136,2.916,2.916,0,0,1-.468-5.795,8.317,8.317,0,0,1,.421-5.083A7.876,7.876,0,0,1,18.286,47a2.894,2.894,0,0,1-.086-.675,2.938,2.938,0,1,1,.906,2.105,6.381,6.381,0,0,0-3.467,3.163,6.941,6.941,0,0,0-.158,4.685,2.924,2.924,0,0,1,.913.712A10.506,10.506,0,0,1,28.044,55.6a2.914,2.914,0,0,1,1.719-1.355L29.755,33.95a6.566,6.566,0,0,0-2.952-.806.759.759,0,0,1-.7.007,6.624,6.624,0,0,0-5.761,4.472.82.82,0,0,1-.661.546,6.621,6.621,0,0,0-5.434,4.72.819.819,0,0,1-.979.57A6.605,6.605,0,0,0,5.089,49.9a6.615,6.615,0,0,0,1.666,4.383.82.82,0,0,1-.3,1.3A6.623,6.623,0,0,0,8.722,68.3a.819.819,0,0,1,.707,1.163,6.567,6.567,0,0,0-.617,2.777A6.613,6.613,0,0,0,16.891,78.7a.822.822,0,0,1,.933.478,6.613,6.613,0,0,0,11.95.478L29.766,59.83a2.909,2.909,0,0,1-2.094-2.573" transform="translate(-0.76 -10.505)" fill="#ffb476"/>
        <path id="Trazado_817444" data-name="Trazado 817444" d="M54.437,48.709a1.282,1.282,0,1,0-1.282,1.283,1.283,1.283,0,0,0,1.282-1.283" transform="translate(-16.442 -15.033)" fill="#7cc3b5"/>
        <path id="Trazado_817445" data-name="Trazado 817445" d="M83.187,25.34A1.282,1.282,0,1,0,81.9,24.058a1.283,1.283,0,0,0,1.282,1.282" transform="translate(-25.961 -7.219)" fill="#de542f"/>
        <path id="Trazado_817446" data-name="Trazado 817446" d="M69.44,26.645a1.282,1.282,0,1,0-1.282-1.283,1.284,1.284,0,0,0,1.282,1.283" transform="translate(-21.604 -7.633)" fill="#de542f"/>
        <path id="Trazado_817447" data-name="Trazado 817447" d="M56.268,19.585a2.882,2.882,0,0,0,.958.174,2.921,2.921,0,1,0-2.921-2.921,2.891,2.891,0,0,0,.617,1.775l-4.537,4.538a.82.82,0,0,0-.24.579v7.526a8.215,8.215,0,0,0-1.435-.133,8.067,8.067,0,0,0-1.2.092A8.251,8.251,0,0,0,44.1,27.168V22.145L46.141,20.1a2.943,2.943,0,1,0-1.016-1.3L42.7,21.227a.817.817,0,0,0-.24.579v4.587a8.372,8.372,0,0,0-1-.268,8.259,8.259,0,0,0-2.424-3.271V19.412L46.69,11.76a2.919,2.919,0,1,0-1.037-1.281l-8.014,8.014a.82.82,0,0,0-.24.58v2.732a8.179,8.179,0,0,0-6.765-.168l0-6.429,3.963-3.963a.82.82,0,0,0,.24-.579V7.1a2.921,2.921,0,1,0-1.639,0v3.223L29.232,14.29a.818.818,0,0,0-.24.579l0,6.749a8.2,8.2,0,0,0-2.486-.591V10.6a.822.822,0,0,0-.24-.58L20.733,4.49a2.916,2.916,0,1,0-2.456,1.352,2.894,2.894,0,0,0,1.217-.274l5.375,5.375V21.05a8.231,8.231,0,0,0-2.645.778V18.652A.82.82,0,0,0,22,18.09L13.863,9.455a2.884,2.884,0,0,0,.375-1.4,2.921,2.921,0,1,0-2.921,2.921,2.886,2.886,0,0,0,1.381-.363l7.886,8.368v3.878c0,.011.006.02.007.031A8.259,8.259,0,0,0,18.2,26.125a8.2,8.2,0,0,0-2.233.817V21.806a.817.817,0,0,0-.24-.579L13.84,19.335a2.887,2.887,0,0,0,.4-1.445,2.921,2.921,0,1,0-2.921,2.921,2.884,2.884,0,0,0,1.34-.341l1.675,1.675v5.944a8.239,8.239,0,0,0-2.178,3.126,8.111,8.111,0,0,0-1.167-.091v-3.47a.819.819,0,0,0-.211-.549L5.892,21.694a2.883,2.883,0,0,0,.373-1.4,2.921,2.921,0,1,0-2.921,2.921,2.881,2.881,0,0,0,1.386-.366L9.349,27.97v3.313A8.255,8.255,0,0,0,4.121,44.028a8.263,8.263,0,0,0,2.66,15.279,8.146,8.146,0,0,0-.367,2.426A8.276,8.276,0,0,0,14.68,70a8.15,8.15,0,0,0,1.159-.085,8.262,8.262,0,0,0,13.994,1.035,8.261,8.261,0,0,0,13.993-1.035A8.15,8.15,0,0,0,44.986,70a8.277,8.277,0,0,0,8.267-8.267,8.168,8.168,0,0,0-.367-2.426,8.263,8.263,0,0,0,2.66-15.279,8.249,8.249,0,0,0-3.762-12.306V24.07Zm.958-4.029a1.282,1.282,0,1,1-1.283,1.282,1.283,1.283,0,0,1,1.283-1.282m-9.39.891a1.282,1.282,0,1,1-1.282,1.282,1.284,1.284,0,0,1,1.282-1.282M48.35,8.08a1.282,1.282,0,1,1-1.283,1.282A1.283,1.283,0,0,1,48.35,8.08M32.732,4.315A1.282,1.282,0,1,1,34.014,5.6a1.284,1.284,0,0,1-1.283-1.282M16.995,2.921A1.282,1.282,0,1,1,18.277,4.2a1.284,1.284,0,0,1-1.282-1.282m-6.96,5.13a1.282,1.282,0,1,1,1.283,1.282,1.284,1.284,0,0,1-1.283-1.282m0,9.838a1.282,1.282,0,1,1,1.283,1.283,1.284,1.284,0,0,1-1.283-1.283M2.061,20.3a1.282,1.282,0,1,1,1.282,1.282A1.284,1.284,0,0,1,2.061,20.3m21.1,52.411a6.622,6.622,0,0,1-6.1-4.031.82.82,0,0,0-.932-.478,6.709,6.709,0,0,1-1.451.165,6.636,6.636,0,0,1-6.628-6.629,6.566,6.566,0,0,1,.616-2.777.82.82,0,0,0-.706-1.163A6.623,6.623,0,0,1,5.7,45.071a.819.819,0,0,0,.3-1.3,6.62,6.62,0,0,1,4.962-11.011,6.682,6.682,0,0,1,1.553.191.818.818,0,0,0,.979-.57,6.621,6.621,0,0,1,5.434-4.719.819.819,0,0,0,.661-.547,6.626,6.626,0,0,1,5.761-4.472.761.761,0,0,0,.7-.007A6.579,6.579,0,0,1,29,23.445L29,43.737a2.912,2.912,0,0,0-1.719,1.355,10.508,10.508,0,0,0-11.652,1.389,2.926,2.926,0,0,0-.913-.712,6.941,6.941,0,0,1,.158-4.685,6.38,6.38,0,0,1,3.467-3.162,2.991,2.991,0,1,0-.82-1.431,7.883,7.883,0,0,0-4.145,3.927,8.322,8.322,0,0,0-.421,5.083,2.916,2.916,0,0,0,.468,5.795,2.885,2.885,0,0,0,.834-.136c1.1.382,5.687,2.272,5.3,6.954a2.9,2.9,0,0,0-.634,1.8,2.921,2.921,0,1,0,2.921-2.921,2.878,2.878,0,0,0-.651.079c-.242-3.692-3.07-5.977-5.367-7.041a2.9,2.9,0,0,0,.516-1.652,2.79,2.79,0,0,0-.033-.331,8.875,8.875,0,0,1,10.6-1.292,2.909,2.909,0,0,0,2.094,2.573l.008,19.829a6.577,6.577,0,0,1-5.852,3.553M13.427,47.092a1.282,1.282,0,1,1-1.283,1.283,1.284,1.284,0,0,1,1.283-1.283m5.651-11.277A1.282,1.282,0,1,1,20.361,37.1a1.284,1.284,0,0,1-1.283-1.283M21.85,58.626a1.282,1.282,0,1,1-1.282,1.282,1.284,1.284,0,0,1,1.282-1.282M55.338,39.391a6.615,6.615,0,0,1-1.666,4.382.819.819,0,0,0,.3,1.3A6.623,6.623,0,0,1,51.7,57.794.82.82,0,0,0,51,58.957a6.566,6.566,0,0,1,.616,2.777,6.636,6.636,0,0,1-6.628,6.629,6.709,6.709,0,0,1-1.451-.165.821.821,0,0,0-.932.478,6.613,6.613,0,0,1-11.95.477l-.008-19.838a2.913,2.913,0,0,0,1.91-1.817,13.252,13.252,0,0,0,5.052,1.093,8.872,8.872,0,0,0,6.493-2.7,2.909,2.909,0,0,0,.535.284,9.448,9.448,0,0,1,.736,6.4,9.487,9.487,0,0,1-4.836,5.533,2.918,2.918,0,1,0,2.4,2.869,2.9,2.9,0,0,0-.756-1.943A10.609,10.609,0,0,0,46.955,53a10.726,10.726,0,0,0-.479-6.714,2.915,2.915,0,1,0-3.46-3.858c-4.8-1.6-5.455-4.673-5.508-5.957a2.923,2.923,0,1,0-1.625-.012c.076,1.73.932,5.794,7.005,7.647a2.9,2.9,0,0,0,.163.515c-3.906,4.075-9.15,1.769-10.446,1.1a2.914,2.914,0,0,0-1.963-1.981l-.008-20.279a6.531,6.531,0,0,1,6.99.369c.055.04.109.081.164.122a6.62,6.62,0,0,1,2.3,3.161.819.819,0,0,0,.661.547,6.623,6.623,0,0,1,5.434,4.719.819.819,0,0,0,.979.57,6.6,6.6,0,0,1,8.18,6.438m-9.6,5.367a1.282,1.282,0,1,1,1.283-1.283,1.284,1.284,0,0,1-1.283,1.283M40.018,59.7a1.282,1.282,0,1,1-1.283,1.282A1.283,1.283,0,0,1,40.018,59.7m-3.3-24.743A1.282,1.282,0,1,1,38,33.676a1.284,1.284,0,0,1-1.282,1.283" fill="#022461"/>
      </g>
    </g>
  </g>
</svg>
